<?xml version="1.0" standalone="no"?>
<!DOCTYPE svg PUBLIC "-//W3C//DTD SVG 1.1//EN" "http://www.w3.org/Graphics/SVG/1.1/DTD/svg11.dtd" >
<svg xmlns="http://www.w3.org/2000/svg">
<metadata>
<json>
<![CDATA[
{
	"fontFamily": "lcc-icon-font",
	"majorVersion": 1,
	"minorVersion": 0,
	"version": "Version 1.0",
	"fontId": "lcc-icon-font",
	"psName": "lcc-icon-font",
	"subFamily": "Regular",
	"fullName": "lcc-icon-font",
	"description": "Font generated by IcoMoon."
}
]]>
</json>
</metadata>
<defs>
<font id="lcc-icon-font" horiz-adv-x="1024">
<font-face units-per-em="1024" ascent="1013.76" descent="-10.24" />
<missing-glyph horiz-adv-x="1024" />
<glyph unicode="&#x20;" horiz-adv-x="0" d="" />
<glyph unicode="&#xe900;" glyph-name="lcc-directdebit" data-tags="lcc-directdebit" d="M516.1 1024.5c0.2-3.2 0.6-6.6 0.6-9.8 0-65.6 0-131.4 0-197 0-3.2 0-6.6 0-11.6-4.8 0-9.4-0.2-13.8 0-86 2.4-170-7.8-249.8-41.4-24.4-10.2-48.2-23.6-69.4-39.4-19-14.2-35.2-32.8-40.6-57.8-5.4-25.6 3-48.4 15.8-69.6 17.6-29 42.4-50.8 69.8-70.4 49-35.2 103.2-57.8 162.4-68.2 58.4-10.4 117.2-15.6 175.6 0.6 38 10.6 73 27.4 102.4 53.8 63.8 57.6 94.2 130.2 94.2 216 0 49.6-8.4 97.2-30.2 141.8-21.6 44.2-53 79.8-96.8 103.8-29 15.8-59.4 28.4-91.8 35.8-9.6 2.2-9.6 2.6-8.6 13.8 23.8-3.4 47.6-6.2 71.2-10.6 64.8-11.8 126.8-32.4 180.8-71.2 57-41 103.4-91.2 122.6-161.2 16.6-60.2 9.6-118-19.6-173.4-16.6-31.4-39.8-57.2-65.6-81.2-55-51-121.6-79-193.6-95-107.4-24-214-22.2-319.2 12.2-45.8 15-89 35.8-126.6 65.6-45.6 36.4-85.6 78.2-105 135.6-12 35.4-14.8 71-10.4 108.2 8.2 68 42.2 120.4 92 165.2 41 37 89.4 58.4 140.8 75 54.2 17.4 110.2 26.8 167.2 28.4 3.8 0.2 7.8 1.2 11.6 1.8 11.4 0.2 22.6 0.2 34 0.2zM515.1 792.3c0-105.6 0-211.4 0-318.6-5.6 0.6-11 1-16.4 2-31.8 6.2-63.4 13.4-90.6 32-27 18.4-52.8 38.6-66.4 69.8-18.6 42.4-14.8 83.8 8.2 123.2 36.2 62 94 87.4 162.8 92.4 0.6 0 1.2-0.4 2.4-0.8zM7.7 213.1c0 55.2 0 108.8 0 164 44.4-2.8 89 5.4 132-8.2 22.4-7.2 42.6-18.6 54.2-40.2 20.4-38 6.2-79.6-33.8-99.8-17.6-9-36.4-13.8-56-14.2-29-0.6-58-1-87.2-1.4-2.8-0.2-5.6-0.2-9.2-0.2zM57.3 352.7c0-39 0-75.8 0-112.6 15 0.8 29.2 1 43.2 2.4 28.2 2.6 49.6 23.4 51 49 1.6 27.8-16 52.4-42.6 57-16.6 2.8-33.8 2.8-51.6 4.2zM7.7 172.9c30.4 0 60.2 0 90.2 0 23.2 0 44.8-5.8 65.2-17.2 25-14 39.2-35.2 39.6-63.8 0.4-29.4-14.4-50.4-40-64.4-16.4-9-33.8-15.2-52.6-15.6-34-0.4-67.8-0.2-102.4-0.2 0 53.2 0 107 0 161.2zM57.1 36.3c19.2 2.2 37.4 2.8 54.8 6.6 25.8 5.8 40 25.2 39.6 49.6-0.4 26.2-15.6 46.8-41.2 52-17.2 3.6-35 4.2-53.2 6.2 0-38 0-74.8 0-114.4zM441.5 291.7c14.8-25.4 29.4-50.2 45.2-77.2-17.2 0-32.8-0.2-48.4 0.2-2.2 0-5.2 3.8-6.6 6.4-6.6 11.8-13.4 23.4-19 35.8-7 16-18.4 23.4-35.8 21.2-2.8-0.4-5.8 0-10 0 0-21.2 0-41.8 0-62.8-16.6 0-31.8 0-47.8 0 0 53.6 0 107.2 0 162.2 6.4 0 12.6 0 18.8 0 26 0 52.2 0.8 78.2-0.8 12.8-0.8 25.8-5 37.8-9.4 13.8-5.2 21.2-16 21.2-31.4-0.2-17.4-5-31.8-22.2-39.6-4-2-8-3.4-11.4-4.6zM366.9 305.3c13.4 0.8 26 0.8 38.2 2.6 14 2.2 20.4 11.8 20.8 22.4 0.4 8.6-7.6 17.8-17.2 18.6-13.6 1-27.4 0.2-41.8 0.2 0-14.2 0-28 0-43.8zM494.7 185.7c15.2 0 30 0 46.2 0 0-22.6 0-45.2 0-70.8 20.6 18 42.6 19.6 65.8 18.8 38-1.4 60.2-28 61.6-61.4 1.4-34.6-23.8-62.6-59-66-23.6-2.2-46.8-0.6-67 16.4-0.2-3-0.4-4.6-0.6-6 0-1.6 0-3.2 0-5.6-15.6 0-31 0-47 0 0 57.8 0 115.8 0 174.6zM541.5 68.7c-3-22.8 21.8-36.4 39.2-36.4 22.2 0 40.2 16.4 40.2 36.4 0 20.2-17.6 35.6-40.6 35.6-22.4 0-38.6-14.8-38.8-35.6zM640.3 308.1c0-9.6 0-18 0-27.6-26.2 0-52 0-78.4 0 0-13.2 0-25.2 0-38.2 27.6 0 54.8 0 82.4 0 0-9.4 0-17.8 0-27-42 0-84 0-126.4 0 0 53.6 0 107 0 161 42.4 0 84.8 0 127.6 0 0-8.6 0-17 0-26.2-27.8 0-55.2 0-83.2 0 0-14 0-27.4 0-41.8 25.8-0.2 51.6-0.2 78-0.2zM421.7 61.5c-39.2 0-78 0-116.8 0 0.6-15 10.6-24.2 28-27.2 26.6-4.4 52.4-1 78 10.4 0-8.2 0.4-15.4-0.2-22.4-0.2-2.2-2.8-5.6-5-6-37-9.6-74.2-13.6-110.6 1-19.2 7.8-33.8 21.2-39.2 42.8-5.6 23.2 5.4 48.4 25 61 34.8 22.6 72.6 24.4 110 6 21.6-10.6 34.6-39.6 30.8-65.6zM376.5 85.9c0.2 18.8-24.8 30.8-39.6 28.8-19.2-2.6-32-14-31.2-28.8 23.8 0 47.4 0 70.8 0zM827.7 346.7c-9.4 1.2-18.4 2.4-27.4 3.4-19.4 2.2-38.8 3-57.4-4.4-22.8-9.2-33.4-26.4-33-54 0.2-20.6 11.8-35.8 33.8-43.8 26.8-9.6 54.4-8 83-4.2 0.8-8.4 1.6-16.8 2.4-25.4-43.4-11.2-85.2-11.4-125.2 8.2-29.4 14.4-45.6 38-45.4 71.6 0.2 33.8 18.6 55.8 47.8 68.4 37.2 16 75.8 17.6 115 7.4 8.6-2.2 11.4-6.2 9-14.4-0.8-4-1.4-7.8-2.6-12.8zM907.7 349.5c-22.6 0-43.2 0-64.8 0 0 9.2 0 17.6 0 26.6 57.8 0 115.2 0 173.4 0 0-8.6 0-16.8 0-26.4-21 0-41.6 0-63.2 0 0-45.8 0-90.4 0-135.6-15.6 0-29.8 0-45.4 0 0 44.6 0 89.2 0 135.4zM956.1 102.5c0-20.2-0.4-38.6 0.2-57 0.4-10.2 8.8-13.6 17.2-14.8 7.4-1.2 15-0.2 23.4-0.2 0-7.4 0.4-14.4-0.2-21.2-0.2-2.2-3-5.4-5.2-6-19.4-3.8-38.6-4.2-57.6 2.6-18.2 6.6-25.8 17.2-25.8 36.4 0 19.4 0 38.8 0 59.4-12.2 0-24 0-36.6 0 0 9.6 0 18.2 0 28 11.8 0 23.4 0 36 0 0 10.4 0 20 0 30.2 16.2 0 31.4 0 47.8 0 0-9.4 0-18.8 0-29.4 13.6 0 26.2 0 39.4 0 0-9.8 0-18.2 0-27.8-12.4-0.2-24.8-0.2-38.6-0.2zM276.3 215.9c-16 0-31 0-46.8 0 0 53.6 0 106.8 0 160.4 15.4 0 30.8 0 46.8 0 0-53.2 0-106.4 0-160.4zM796.7 9.7c-15.2 0-29.6 0-44.6 0 0 39.8 0 79 0 119 14.6 0 29.2 0 44.6 0 0-39.2 0-78.6 0-119zM752.1 184.5c15 0 29.6 0 44.6 0 0-9.6 0-19 0-29-14.6 0-29.2 0-44.6 0 0 9.4 0 18.8 0 29z" />
<glyph unicode="&#xe913;" glyph-name="lcc-angling" data-tags="lcc-angling" d="M1008.6 534.1c0-173.8 0-347.4 0-521.6-2-0.2-4.2-0.8-6.4-0.8-112.6-1.2-224 8-333.8 34.2-118 28-227.8 74.2-325.6 146.8-7 5.2-14 10.4-20.6 16-1.8 1.6-3.4 5.2-2.8 7.2s4 3.6 6.6 4.4c2.4 0.8 5.2 0.2 7.8 0.2 58.8 0 117.4-0.2 176.2-0.2 3.8 0 7.6 0.2 11.2 1.2 6.8 2 10.6 7 11.6 14 1 6.6-1.6 12-7.4 15.6-2.8 1.6-5.6 3-8.4 4.4-53.2 25.4-106.4 50.8-159.4 76.2-1.6 0.8-3.2 1.4-4.8 2.2-10.2 5.4-11.2 14-2 21.2 38 30.2 80 53.8 123.6 74.4 93.2 43.8 191.2 71.2 292.6 87.4 77.4 12.4 155.2 17.8 233.6 17.4 2.4 0.2 5-0.2 8-0.2zM645.2 346.5c0.2 22.8-18 41.2-40.6 41.4-22.6 0-41.2-18.4-41.2-41 0-22.2 18.4-40.6 40.4-41 22.6-0.4 41.2 18 41.4 40.6zM1023 1013.5c0-48.4 0-96.4 0-144.6-215.2 0-429.8 0-645.4 0 0 48 0 96 0 144.6 215 0 429.8 0 645.4 0zM1 867.1c0 49 0 97.4 0 146.4 60 0 120 0 180.6 0 0-48.6 0-97.2 0-146.4-60.2 0-120.2 0-180.6 0zM268 1013.5c9.2 0 17.2 0 26.2 0 0-3.8 0-7.2 0-10.6 0-68.6 0-137.2-0.2-205.8 0-5.2 1-8.2 6-10.8 14.2-7.8 21.6-20.4 21.4-36.4-0.2-15.6-7.8-28-22-35.2-5-2.6-5.4-5.8-5.4-10.2 0-81.4 0.2-162.8 0-244.2-0.2-39-24.8-72-60.8-82.2-56.4-16.2-109.4 25.6-108.4 86 0.2 10.4 2.6 21.4 6.4 31.2 10 25.4 21.2 50.2 32 75.4 0.2 0.6 1 1.2 2.4 3 4.2-37.4 8.4-73.6 12.6-111.8-8.2 7.4-15.2 13.8-22.2 20-13.2-24.4-2-70 40.6-79.4 37-8.2 70.8 19 71 57 0.4 82 0 164 0.2 246 0 5.6-2.8 7.2-6.6 9.6-13.8 8.2-21.4 20.4-21 36.6 0.4 15.8 7.8 28 22.2 34.8 5.2 2.4 5.4 5.6 5.4 10.2 0 69 0 137.8 0 206.8 0.2 2.8 0.2 6 0.2 10z" />
<glyph unicode="&#xe914;" glyph-name="lcc-legalscales" data-tags="lcc-legalscales" d="M632.4 80.4c22.4 0 44.6 0 66.8 0 30.6 0.2 45.2-12.4 49.8-42.6 4.8-32.4 0.6-37.4-31.2-37.4-141.2 0-282.2 0-423.4 0-17.4 0-19.2 1-18.8 18.2 0.4 13.4 1.2 27.4 5.8 39.6 5.8 15.4 20.6 21.6 36.6 22 20.4 0.6 41 0.6 61.4-0.2 10.4-0.4 14.8 3 16.6 13.2 6 34.6 22 64.8 53.4 80.4 22.2 11 24 25.4 23.8 46.2-0.8 137.8-0.4 275.6-0.2 413.4 0 10.2-3.4 16.8-10.2 24.6-9.8 11.2-17.2 25.4-22.8 39.4-4.6 11.2 0.2 15.8 12.8 16 39.6 0.2 79.2 0.2 119 0 13.4 0 17.6-5.4 13.2-18-5.2-15-11.4-30-25-39.8-6.2-4.4-8-10-8-17.6 0.2-146.6 0-293 0.4-439.6 0-4.8 3.6-12.2 7.8-14.2 37.4-18.6 60.6-47.4 68.6-88.8 0.2-4.8 2-9.4 3.6-14.8zM2 395.4c11.6 0 21.6 0.6 31.2-0.2 10.4-0.8 15 5 18 13.2 22.4 59.2 45.2 118.4 67.4 177.8 19.8 53 39.2 106.2 58.8 159.4 3.4 9.2 9.4 16 20 15.8 10-0.4 15.8-5.8 19.6-15.6 20-53.4 40.6-106.6 60.8-159.8 19.6-52 39-104.2 58.4-156.2 2.4-6.4 4.4-13 6.8-19.6 3.8-10.2 9.6-16.6 22-14.8 8.4 1.2 17.2 0.2 25.8 0.2-1.8-52-92.2-129.2-158.4-137.8-115.2-15.2-200 52.6-230.4 137.6zM199.2 680.4c-1.4-0.2-3-0.4-4.4-0.6-2.8-8.4-5.4-17-8.6-25.4-14.4-37.8-28.8-75.6-43.2-113.4-16.4-43.2-32.8-86.6-49.4-129.8-4.4-11.6-2.8-15.6 9.4-15.8 63.2-0.2 126.4 0 189.4-0.2 10.8 0 12.8 5.2 9.6 14.2-14.6 38.4-29.2 76.8-43.6 115.2-14 37.2-27.6 74.4-41.6 111.4-6 15-11.8 29.6-17.6 44.4zM1022 395.6c-23.2-73.6-103.6-139.4-193.2-140-98.4-0.6-176.4 71.4-197.2 140 9.8 0 18.6 1 27.4-0.2 12.2-1.6 18.4 4 22.2 14.6 17.6 47.8 35.2 95.6 53.2 143.2 12.4 32.6 25.4 65 37.6 97.6 12.2 32.2 23.2 65 36.2 96.8 2.4 6 11.4 11.6 18.2 13.4 9.6 2.4 16.4-5.2 19.6-13.6 18-47.8 35.4-95.8 53.4-143.6 12.2-32.2 25.2-64.2 37.2-96.4 12.2-32.6 24-65.6 36-98.4 3-8.4 7.4-14.4 17.8-13.6 10 0.6 20 0.2 31.6 0.2zM828 682.2c-3.4-5-6-7.8-7.2-11.2-6.2-15.6-12.2-31.2-18-47-14.4-38.8-28.8-77.8-43.4-116.6-12.2-32.4-24.6-64.6-36.6-97-2.8-7.8-4-15 8.2-15 64 0 128 0.2 192 0 10.6 0 11.6 5.6 8.8 13.6-9.6 26-19.2 51.8-29 77.6-14.6 38.8-29.4 77.4-44.4 116-9.6 26-19.6 51.6-30.4 79.6zM458.8 879.4c8.8 6.4 17.4 12.6 27 19.6-21.8 19.2-24.4 41.2-12.6 65.2 3.2 6.6 6.6 13 10.6 19 7 11 14.4 21.6 21.4 32.4 4.6 6.8 9 8 13.6 0.2 12.4-20.6 26.2-40.6 36.2-62.2 7.2-15.6 4-32.4-8.4-46-2.2-2.6-4.4-5.2-7.4-9 7.8-6 15-12 23-17 1.8-1.2 6.6 0.2 8.8 2 31.2 24.6 67.8 30 104.4 23 28.4-5.4 55-19.2 82.4-29.8 10-3.8 19-10.2 29-13.8 5.4-1.8 13.4-2.2 18.2 0.4 16.4 8.8 31.8 8 46.4-2.6 14.8-11 16.8-27 13-43.8-6.2-26-47.6-37.4-64.2-15.4-14.4 19.4-34.4 26.8-53.4 36.4-20.4 10.4-42.2 19.2-64.2 26-32.2 10-64.2 8-90.4-15.6-7-6.4-10.2-19.8-10.6-30.2-1.2-25.4-26.8-52.8-55-58.4-30.4-6.2-65.2 10-76.6 36.2-4 9.4-7 19.8-7.6 29.8-0.8 14.8-8.4 23.6-20.2 30.8-25.2 15.2-52.8 17-79.2 7.8-34.8-12.2-68-28.6-101.6-43.8-3.8-1.8-6.8-6.4-9.4-10.2-18.8-26.8-48.6-27.4-67.8-1-14.4 19.8-1.8 54.4 22.4 58.2 10.4 1.6 21.6-3.4 32.4-4.2 7.2-0.6 15.6-1.4 22 1.4 27 11.4 52.6 26.6 80.4 35.4 45.6 14.4 91.2 14.2 132-16.8 1.4-1 3.2-2.2 5.4-4z" />
<glyph unicode="&#xe915;" glyph-name="lcc-museum" data-tags="lcc-museum" horiz-adv-x="1202" d="M1090.2 1.6c-326.4 0-652.8 0-979.2 0-1.6 1.2-3 2.4-4.6 3.4-17.6 8.6-26.4 22-26 41.6 0.4 18.8 0.8 37.8 0 56.6-1 20.8 20 41.2 40.4 40 20.8-1.2 41.8-0.2 63.2-0.2 0.2 2.8 0.4 4.2 0.4 5.8 0 139 0 277.8 0.2 416.8 0 5.6-2.4 7.6-7.4 9.4-15.4 5.8-27.4 15.8-31.2 32-3.2 13.8-4 28.4-6 43.2-2.4 0.6-6 1.4-9.4 2.2-29.2 7.2-51.6 25.4-50 61.2 0.6 12 0.4 23.8 0 35.8-0.8 19.4 9.2 32.6 25.2 41.6 17.4 9.6 35.4 18 53.4 26.4 46.4 21.8 93 43.4 139.6 65 43.2 20.2 86.4 40.2 129.6 60.6 52.2 24.4 104.4 48.8 156.4 73.6 11.8 5.6 22.8 5.8 34.4-0.2 12.4-6.2 25.2-11.8 37.8-17.6 57.2-27 114.4-54 171.6-81 37.2-17.6 74.4-34.8 111.6-52.4 48.6-23 96.8-46.6 145.4-69.2 17.2-8 30.8-18.4 37.4-36.2 0-21.8 0-43.8 0-65.6-4.8-8.4-8.6-17.4-14.6-24.8-11.6-14-28.8-17.6-46.6-19.8 0-8.2 0.2-15.8 0-23.4-1-23.2-11.2-41.2-33.2-50.4-7.6-3.2-9.8-6.2-9.8-13.8 0.2-136 0.2-272 0.2-408 0-3.6 0-7 0-10.2 2-0.6 2.6-0.8 3.2-0.8 18.6 0 37.4 0 56-0.2 23.6-0.2 42.6-18.8 42.6-41.8 0-20.2 0.2-40.4-0.2-60.6 0-4.4-1.6-9-3-13.2-4.8-13-16.4-19.2-27.4-25.8zM1080 726.8c0 25 0 24.8-19.6 33.6-22 9.8-44 20-65.8 30.4-37.6 17.6-75 35.2-112.4 52.8-57.6 27.2-115 54.2-172.6 81.6-33 15.6-65.8 31.6-98.6 47.2-4.8 2.4-9.4 4.6-15.6 1.6-31-15-62.4-29.4-93.6-44-43.2-20.2-86.4-40.4-129.6-60.6-48-22.4-96-45-144-67.4-29.8-13.8-59.4-27.8-89.2-41.6-10.4-4.8-17.8-10.8-16-24 1.2-7.8 0.2-15.8 0.2-23.8 0-9.4 4.8-15.4 14-16.2 11.8-1 23.8-0.2 35.8-0.2 84-0.6 168-1.4 252-1.8 20.6 0 41.2 1.8 61.6 1.8 83.6-0.4 167.2-1.4 251-1.8 19.8 0 39.8 1.8 59.6 1.8 78 0.2 156 0.2 234 0 3.6 0 7.2-1 11-1.2 26.6-1.4 40.8-5.2 38 29-0.2 0.8-0.2 1.8-0.2 2.8zM123.2 101c0-15.6 0-30 0-44.6 0-13.2 0-13.2 13.2-13.2 309.8 0 619.4 0 929.2 0 4 0 7.8 0 12.2 0 0 15.6 0 29.8 0 44 0 13.6 0 13.6-13.8 13.6-309.8 0-619.4 0-929.2 0-3.2 0.2-6.6 0.2-11.6 0.2zM350.8 570c-41.6 0-82.4 0-123 0 0-142 0-283.4 0-424.8 41.4 0 82 0 123 0 0 141.8 0 283 0 424.8zM975.8 570c-41.6 0-82.4 0-123 0 0-142 0-283.4 0-424.6 41.4 0 82 0 123 0 0 141.6 0 282.8 0 424.6zM541 145.6c41 0 81 0 121 0 0 142 0 283.4 0 424.6-40.6 0-80.6 0-121 0 0-141.6 0-282.8 0-424.6zM495.8 143.4c0 4.2 0 7.8 0 11.4 0 71.2 0 142.6 0 213.8 0 65 0 130 0.2 195 0 6.8-1.6 10.2-8.6 12.8-21.8 8.6-32 25.4-32.2 48.2 0 8.4 0 17 0 25.4-6.8 0-12 0-17.2 0-1-11.2-2-21.8-3.2-32.6-2.2-20-13.6-34.2-31.8-41.8-7.6-3.2-9-6.4-9-13.4 0.2-136.2 0.2-272.6 0.2-408.8 0-3.2 0-6.4 0-10.2 33.8 0.2 67 0.2 101.6 0.2zM809.2 143.2c0 4.6 0 8.6 0 12.6 0 117.4 0 234.8 0 352 0 19.2 0.2 38.4-0.2 57.6 0 3-2.6 7.8-5.2 8.8-21 8-32.6 22.6-35.2 44.4-1.2 10.4-2 20.6-3 31-5.8 0-11.2 0-17.2 0 0-9 0.2-17.2 0-25.6-0.4-22.2-10-39.2-31.8-47.4-8.2-3-9-7.6-9-14.6 0.2-136 0.2-271.8 0.2-407.8 0-3.6 0-7 0-11 33.8 0 67 0 101.4 0zM497.8 650c0-8.2-0.4-15.6 0.2-22.8 0.6-7.4 3.8-12.8 13.2-12.8 60.4 0.2 120.8 0.2 181 0 8.8 0 12.4 4.8 13 11.8 0.8 7.8 0.2 15.6 0.2 23.8-69.6 0-138 0-207.6 0zM186.2 650c0-8 0.2-15.2 0-22.4-0.2-9.2 4-13.2 13.4-13 17 0.2 34 0 50.8 0 42.4 0 84.8 0 127.2 0 7.8 0 13.4 2.4 14.2 10.4 0.6 8.2 0.2 16.4 0.2 25-68.8 0-136.6 0-205.8 0zM811.2 650c0-8.4 0-15.8 0-23 0-8.6 4.6-12.6 13.2-12.4 6.2 0 12.2 0 18.4 0 53.2 0 106.4 0 159.8 0 7 0 13.4 1.2 14 9 0.8 8.8 0.2 17.6 0.2 26.4-69 0-136.8 0-205.6 0z" />
<glyph unicode="&#xe916;" glyph-name="lcc-101" data-tags="lcc-101" horiz-adv-x="1818" d="M542 519.9c2.8 68.6-0.2 137.8 9.4 205.4 22 154.4 114.4 251.8 263.4 291.2 133.4 35.2 260.2 17.2 371.4-70 82.4-64.4 123-153 126.8-255.4 4-114 5.2-228.4-0.2-342.4-6.4-134.4-70.8-236.4-192.6-298.2-154.2-78.2-357.2-49.4-474.2 67.2-61.4 61.2-93.4 136.8-98.2 222.6-3.4 59.6-0.6 119.6-0.6 179.6-1.8-0.2-3.4 0-5.2 0zM821.2 521.3c-0.2 0-0.4 0-0.4 0 0-51-1-102.2 0.2-153.2 1.8-66.6 43.6-110 106.2-112.4 59.4-2.4 102.4 37.2 111.2 101.8 0.4 3.2 1.2 6.4 1.2 9.4-0.6 106 0.8 212.2-3 318-2.2 62-51 100.6-113.2 97.8-58.4-2.6-99.2-44.4-101.8-108.6-2.2-50.6-0.4-101.8-0.4-152.8zM416.6 5.5c-77 0-151.8 0-226.8 0-46.6 0-46.6 0-46.6 47.8 0 214.8 0 429.4 0 644.2 0 9.6 0 19.2 0 35.8-49.2-44.4-93.4-84.2-141.8-128 0 27.8 0 50.2 0 72.6 0 68.6-0.8 137.2 0.6 205.8 0.2 12 6.4 26.8 15 35 36.4 35.4 74.6 69 112.4 102.8 5.6 5 13.2 11.2 20 11.2 88.4 0.8 177 0.4 267 0.4 0.2-342.4 0.2-683.2 0.2-1027.6zM1817.4 5.5c-91.4 0-180.6 0-272.4 0 0 241 0 480.8 0 728-49.2-44.6-93.4-84.6-142.4-128.8 0 21.8 0 37 0 52.2 0 76-0.6 152.2 0.6 228.2 0.2 11.2 6.2 25.4 14.2 33.2 37.2 35.8 75.8 70.2 114.4 104.4 5.6 5 13.4 10.4 20.4 10.4 87.8 0.6 175.4 0.4 265.2 0.4 0-343.2 0-684.4 0-1028z" />
<glyph unicode="&#xe917;" glyph-name="lcc-liverpoolvision" data-tags="lcc-liverpoolvision" horiz-adv-x="3025" d="M3023 427.6c-50 3.4-100.2 1.2-150.2 1.2-14.6 0-19 3.4-18.8 18.6 0.8 81.8 0.8 163.8 0 245.6-0.2 14 3.8 17.8 17.6 17.4 32.6-0.8 32.6 0 32.6-33.2 0-62 0.4-124.2-0.4-186.2-0.2-13 3.4-16.6 16.2-16.2 34.2 1 68.6 0.4 103 0.6 0-16 0-31.8 0-47.8zM1106.4 989.8c-50.8-72.4-101.2-145-152.2-217.2-177.4-250.6-355-501.2-532.4-751.8-3.8-5.4-7.8-10.6-13.2-18-135.8 205.2-271 409.4-406.6 613.8 10 4.8 14.4-3.2 19.8-7 123-84.6 246-169 368.4-254.4 14.4-10 22-10.6 35.4 2.2 219.4 209.8 439.4 418.8 659.2 628 5.2 5 10.8 9.4 16.4 14.2 8.2 0.2 6.8-4.6 5.2-9.8zM2193 177.4c0 61.4 0.4 122.8-0.4 184-0.2 14 2 19.6 17.8 18.8 32-1.4 32.2-0.2 32.2-32.2 0-77.4-0.2-154.6 0.2-232 0-13.2-2.6-18.2-17-18-46 0.4-46-0.2-71 38.6-36.6 57-73.2 114.2-110 171.6-7.2-4.6-4-11.2-4.2-16.4-0.2-58.8-0.6-117.6 0.2-176.4 0.2-14-4-17.8-17.6-17.4-32.4 0.8-32.4 0-32.4 31.8 0 78 0.4 156-0.4 234-0.2 13 4 14.8 16.2 16.6 37.6 5.8 59.2-8.8 78-41.8 31.8-56 69.4-108.6 104.6-162.8 1.2 0.8 2.6 1.2 3.8 1.6zM1518.8 572.6c0 40.4 0.4 80.6-0.2 121-0.2 12.2 2 17 15.8 16.8 51.6-1 103.2-0.8 154.6 0 13.8 0.2 16-4.8 15.8-17-0.6-28.2 0-28.2-28.2-28.2-31 0-62.2-0.6-93.2 0.2-11.6 0.2-15.2-3.6-14.2-14.6 1.6-17.6-7.2-40.2 3.6-51.6 10-10.6 32.6-2.6 49.6-3.2 20.4-0.6 41-0.6 61.4 0 10 0.4 13.4-2.2 13.6-13 0.6-32.4 1.2-32.4-31.4-32.4-27 0-54.2-0.6-81.2 0.2-11.6 0.4-16.6-1.8-15.6-14.8 1.6-19.6-6.4-45.6 3.6-57.4 10.4-12.4 37.2-3 56.8-3.6 21.8-0.6 43.6-1.2 65.4 0.2 14.6 0.8 18.8-4.6 17-18-0.8-5.2-0.6-10.6 0-15.8 0.8-9.6-3.2-12.6-12.6-12.6-56.2 0.4-112.4 0.4-168.6-0.2-12.2-0.2-12 6.2-12 14.8 0 43.4 0 86.2 0 129.2zM1533.2 357.6c-4.4-4.8-9-9.4-13.4-14.4-11.6-13.6-20.6-28.6-42-8.8-12.4 11.6-32.6 9.2-49.4 4-14.2-4.4-23.8-13.6-25.2-29.6-1.2-15.4 6.8-25.8 19.6-31.2 21.2-9 43.4-15.6 64.4-24.8 48.8-21.4 63.8-76.8 34-121-5.6-8.2-12.6-15.2-20.8-21-39-27.4-108-24.4-145.4 5.6-10.4 8.4-16 15.8-1.8 25.2 1 0.8 2 1.6 2.8 2.8 12 16 22.6 24.4 41.6 5.2 15.6-15.8 38.6-15.6 59.6-7.4 14.6 5.6 24.4 15.6 25.2 32.2 0.8 16-7.6 26.8-21.2 32.8-21.6 9.4-44.4 16.8-66 26-31.4 13.4-45.8 37.8-44.6 72 0.8 24 9.8 43.4 28.2 58.6 41.8 33.6 114.2 30.8 154.4-6.2zM956 379c55.6 3.4 55.6 3.4 73.6-46.8 19.2-53.4 38.2-106.8 58.6-163.8 14.4 38.6 27.8 73.8 41 109.2 10.6 28.4 22 56.6 31.2 85.4 4.4 13.8 11.2 18.6 25.2 17 10.4-1.2 21.2-0.2 31.8-0.2 3.2-6-0.6-10.2-2.4-14.6-33.6-83.8-68-167.2-100.4-251.6-7-18.2-18.6-14.2-31-15.2s-20 1.6-25 15c-31.8 83.8-64.8 167.2-97.4 250.6-2.2 5-3.6 10-5.2 15zM1228.6 710c17 0 32.6-0.6 48.4 0.2 12 0.6 11.6-9.4 14-16 23-63 45.4-126.4 68.2-190.4 7.4 2.2 7 8.6 8.6 13 21.8 58.6 44 117 64.8 176 4.8 13.6 11.2 17.8 25.2 17.4 35.4-1 35.4-0.2 22-33.8-30.8-77-62.6-153.6-92-231.2-7.2-18.8-19.4-15-32.6-16.4-13.2-1.2-19.4 3.2-24.2 16.2-32.6 85.4-66.2 170.6-99.6 255.8-1 2.4-1.6 5-2.8 9.2zM954.2 570.6c0 41 0.4 82-0.2 123-0.2 12.2 2 17 15.8 16.8 33.6-0.6 33.6 0.2 33.6-34.4 0-61.6 0.4-123-0.2-184.6-0.2-12.6 2.8-17.2 16.2-16.6 27.8 1 55.6-1 83.2 0.8 17.6 1 22.4-5.2 19.6-21-0.4-2-0.4-4 0-6 2.6-15.2-3-20.2-19-19.8-44.2 1.2-88.6 1-133 0-13.2-0.2-16.6 3.8-16.4 16.6 1 41.8 0.4 83.6 0.4 125.2zM1201.2 569.6c0-40.8-0.4-81.8 0.2-122.6 0.2-13-2-18.4-16.8-18-33.2 0.8-33.2 0-33.2 33.4 0 76.6 0.4 153-0.4 229.6-0.2 14.6 3.2 19.2 18.4 18.6 31.8-1.2 31.8-0.2 31.8-32 0-36.6 0-72.8 0-109zM1256 239c0 41.6 0.4 83.2-0.2 124.8-0.2 12.8 3 16.8 16.2 16.4 33.6-0.6 33.6 0 33.6-34.4 0-76-0.4-152 0.4-227.8 0.2-15.2-3.2-22-19.2-19.4-5.8 1-12 0.8-17.8 0-11-1.4-13 3.8-13 13.6 0.2 42.2 0 84.6 0 126.8zM1627.4 239.8c0-41.6-0.6-83.2 0.4-124.8 0.2-13.2-3.4-16.8-16.6-16.6-33.2 0.6-33.2-0.2-33.2 32.8 0 77.2 0.4 154.6-0.4 231.8-0.2 14 3.4 17.6 17.4 17.2 32.4-1 32.4-0.2 32.4-31.6 0-36.2 0-72.6 0-108.8zM1106.4 989.8c-0.4 4-1.2 7.8-5.4 9.8 6.4 7.8 12.8 15.8 25.8 21.6-5.2-14-12.6-22.8-20.4-31.4zM2357.2 717.4c-92 1-152-56.8-153-147-0.8-86.6 57.2-146.2 143.8-147.6 89-1.4 151.4 58.8 152 146.4 0.6 87.8-56.8 147.4-142.8 148.2zM2350 467.6c-55.6 1-94.2 44.8-93.6 106 0.6 57.6 41.6 99.2 96.6 98.2 56.2-1 95.2-43 94.6-102.4-0.6-60.4-41.2-102.6-97.6-101.8zM2676 717.4c-90.4 0.4-149.8-58-150.4-147.4-0.6-87.4 58.8-147.4 146-147.4 88.2 0 149.2 60 149.6 147 0.4 88.6-57.4 147.6-145.2 147.8zM2673.8 467.6c-56-0.2-95.8 42.6-96 103.4-0.2 58.8 40.2 101.2 96.2 100.8 55.4-0.6 95-42.2 95-100 0.2-60.8-39.2-103.8-95.2-104.2zM1815 387.4c-89.8 0.8-150-58-151-147.4-1-86.8 59-147.8 145.8-148.2 87-0.4 148.8 59.4 150 145 1.2 89.8-56.6 149.8-144.8 150.6zM1811.6 137.6c-56.4 0-95.2 42.4-95.2 103.8 0.2 58.4 39.2 99.4 94.8 99.6 56.6 0.2 96.4-41.4 96.4-100.4 0-60.6-39.4-103-96-103zM1886.4 551.8c51.6 19.4 69.4 47 61.8 93.8-6.4 39.2-37.2 62.4-87.4 64-31.6 1-63.4-0.4-95.2 0.8-13.8 0.6-17.6-3.2-17.4-17.2 0.8-77.4 0.4-154.6 0.4-232 0-32.4 0-31.6 32.2-32.2 14-0.2 18.2 3.8 17.6 17.8-1 29-0.4 58.2-0.2 87.2 0 4.8-2.2 10.6 4.4 13.8 10.8 5.4 32.8-1.4 38.8-12.4 17-31.2 34-62.6 51.2-93.6 2.6-4.8 4-12.2 11.4-12.2 17.4-0.2 34.8 0 55.4 0-26 43-49.4 82.4-73 122.2zM1815 590.8c-14.4-1.2-18.8 4.4-17.2 17.8 0.8 6.6 0.2 13.2 0.2 19.8 0 39.2 0 39.2 39.6 38.6 9.2-0.2 18.6-0.2 27.6-1.8 21-3.4 31.2-15 31.6-34.2 0.4-21-9-32.4-30.6-37.2-16.8-3.6-34.2-1.6-51.2-3zM2122.6 706.2c-37.8 8-76.4 1.8-114.6 4-13.4 0.8-18-2.4-17.6-16.8 1-41 0.4-82 0.4-122.8 0-36.4 0-72.6 0-109 0-33 0-32.2 33.6-32.6 13.6-0.2 16.8 4.4 16.4 17-0.8 26.4 0.6 52.8-0.6 79.2-0.8 16 3 22.2 20.4 21.2 20.4-1.2 40.8-1.2 61.2 3.2 45.2 9.8 65.6 33.4 66.2 77.8 0.8 42.2-21.4 69.4-65.4 78.8zM2111 593.4c-13.4-4.6-27.2-3.4-37.2-4.4-33.2-0.2-33.2-0.2-33.2 28.6 0 4 0 7.8 0 11.8 0 38.8 0 39 40 37.4 10.6-0.4 21-0.8 31-4.6 16.2-6.2 23.8-17.6 23.6-34.6s-7.8-28.4-24.2-34.2z" />
<glyph unicode="&#xe918;" glyph-name="lcc-liverpoolmayor" data-tags="lcc-liverpoolmayor" horiz-adv-x="2674" d="M298.4 883.1c0.2-6-5.6-11.2-13-11.2-1.4-0.2-2.8 0.2-4 0.4 3.2 0.6 6 3 5.8 6 0 3.2-3.4 5.8-7.2 5.8s-6.8-2.8-6.8-6.2c0 0 0.2-0.2 0.2-0.2-1 1.4-1.6 3-1.6 4.8 0 2 0.8 4 1.8 5.6-7.8-4.8-10.8-11.4-10.8-11.4s1.6 18.6 19.6 22c19 3.6 29-8.4 29-8.4-8.4 2.6-15.4 3.2-21.2 2.8 4.6-1.4 8.2-5.2 8.2-10zM496.4 528.1c-16.6-13.2-36.4-22.6-57.6-28.4l-7.4 25.2c11.8 5 23 11.4 33.2 19l31.8-15.8zM411.4 517.9l6.6-22.6c-61.2-9.6-129.2 8.8-165.8 54.4-2.8 3.4-5.4 7-7.6 10.4 43.4-46 109.8-58.6 166.8-42.2zM930.2 960.1l-13.8-33.2c-0.4-0.8-93.4-226.6-309.2-309.4 6.2-0.4 13-0.8 20.4-0.8 14.8 0 32 1.2 50.8 4.2l25.8 4.2-16.8-19.8c-27.2-32.2-74.8-76.6-131.2-113.6-10.6-7-21.6-13.6-32.8-20 151.6-94.8 188-250.8 188.4-251.8l6.8-29.2-22.4 19.8c-63.2 55.6-104.2 85.6-134.4 104-4.2-7-9-16-14.2-27.4-14.8-33.4-31.8-86.6-39.2-166.2 5-3.4 13.4-9.2 22.6-16.2 14.4-10.6 48.4-37.8 58.4-48 48.4-12.8 91.8-29.8 128.2-49.8-98 36.4-219.2 54.4-351 54.4-137.6 0-264.4-19.8-364.4-59 49 28.2 111.2 50.8 181.8 65.2 17.8 20 42.6 32.6 63.8 40.4 17.6 6.4 32.8 9.8 40 11.2 1 1.4 2.2 3.2 3.6 5.4 3.8 5.6 9 14 15.2 24.4 12.6 20.8 32.2 55.8 47.8 89.6 4.8 11.2 8 21.6 7.8 30.8-0.2 10.6-3.4 20-14.4 30.6 0 0-1 1-4 3.8-3 2.6-7.8 6.8-14.6 12.6-13.8 11.8-36.6 30.6-71.8 58-90.6 70.6-102 148.8-101.8 180.6 0 7.6 0.6 12.6 1 14.4 0.4 6.8 5.4 67 63.4 119.2-0.4 0.2-0.6 0.4-1 0.6-8.4 6-14.6 12.6-19.6 19.4-9.6-17.8-28.6-33.4-29-33.8 0 0-0.6-0.4-1.8-1.4-1.2-0.8-2.6-2.2-4-3.8-5.2-5.4-6.2-9-4.8-12.8s8-11.8 8-11.8-8.6 2.2-15.8 7c-1 0.4-13.8 9-13.8 30 0 9.4 0.6 19.6 7 32.4-11.6-5.2-22.8-7-32.4-7h-0.4c-20.8 0-38.8 9.4-38.8 9.4s13.6 3.6 19.6 8c7.8 5.6 16.6 21.8 28.4 35 7 7.6 16 10.6 24.2 10.6 11.4-0.2 22-5 28.8-9 3.6 4.8 6.2 10.6 7.4 15.4-30-3-36 1.6-36 1.6 12.2 6.4 23 12.6 33 18.8-0.6 1.6-1.2 3-1.8 3.8-0.4 0.8-0.6 1.2-0.8 1.2-3.4 4.6-6.2 8.8-8.8 13.2-22-7.8-40.2-18.2-41.8-20l-0.2-0.2c0 0-4.6 30.8 30 58.2-0.8 5-1.2 9.6-1.2 13.8 0 18.6 6.4 29.8 6.8 30.4l19-9.2v-0.2c0-0.2-0.4-0.6-0.6-1-0.2-0.8-6.6-10.2-8.4-23.8 4.6 2.6 9.4 5 15 7.6 20.8 8.4 37.8 12 49 12.6 2.6 19.8 16.6 34.4 34.6 42 20.6 9 47.2 12.2 76.8 12.2 3.2 0 6.6 0 9.8-0.2 1.4 0 2.6 0 3.8 0 42 0 68 16 73.2 19.6 0.8 0.4 0.8 0.6 0.8 0.6l27 20.4-12-31.2c-9.4-24.8-20.4-44.6-31.2-60.4 0 0-8.4-11.6-13.8-17.8-1.2-64.6-16.6-107.4-40.2-142.4 14.2 9.6 33 23.8 55 45.2 43 42 97.4 110.6 148.8 221.2l13.6 29 4.6-31.8c0-0.4 4.6-30.6 4.6-76.4 0-38.8-3.2-88.8-15-141.4 172.4 61 284.4 135.8 316.8 158.8 6.4 4.6 9.6 7 9.6 7l28.2 22.2zM385.8 718.5c60.8 13 116.8 29 168 46.2 13.4 55 17.2 108.4 17.2 148.8 0 15.2-0.4 28.8-1.2 40-47.8-94.6-97.2-156.4-137.8-195.8-17.4-16.8-33-29.6-46.2-39.2zM187.8 810.5v0l0.2-0.4c0.2-0.2 1.4-2.2 3-5.6 11.4 7.2 20.8 13.8 28.4 19.2-11.4 1.6-25-0.6-38-4.2 2-3 4-6 6.4-9zM171.6 749.9c-1.6 1-3.4 2-5.4 3-6 3.2-13.8 6-20.8 6-5.8-0.2-10.2-0.6-15.6-6.8 0 0-8.8-11-12-15.8 0 0-6.4-8.4-6.8-9.2-5.2-6.4-9.6-8.2-9.6-8.2s5.8-0.8 10.6-0.4c17.2 0 39.6 5.4 59.6 31.4zM192 720.1c-5.4 10.8-7.4 20.8-8.2 27.8-5.6-8.2-11.8-14.8-17.8-20.2-13.2-21-16.8-36-16.8-46 0-4.6 0.8-8.2 1.8-11.2 1.6 2.4 3.4 4.6 5 6.4 3.8 3.8 7.2 6.4 7.2 6.4 0 0.2 5.8 5 12.2 11.8 6.4 7 13.6 16.2 16.4 23.8 0 0.6 0.2 0.8 0.2 1.2zM200.6 764.3c11.2 0.2 27.6-6.2 39.6-29.4 4.6-8.8 7.8-17.2 9.8-24.8 41.8 39 48.6 67 48.8 81.4 0 2.8-0.4 5.2-0.6 7.2-42.2-12.6-72-17-101.4-20.4-0.4-4.8-1.8-10-4.6-15 2.2 0.4 5 1 8.4 1zM224.8 698.9c7.8-4.8 13.2-9.2 17.2-13.4v1.4c0 10.4-2.4 25.2-11.8 43-11 20.6-22.2 23.2-29.6 23.4-2.2 0-4.2-0.4-5.8-0.8 0.4-10.2 3.4-37.6 30-53.6zM312 816.1c0.6-1 5.8-10.8 5.8-24.6 0-22.4-12-58.6-64.4-103.8 0.6-14.4 2.2-52-0.2-44.6-3 8.8-7.6 17.6-11.8 24.4-1.8 2.4-2.8 4-4.4 5.6-1 1-1.8 1.8-2.6 2.8-50-43.6-57.6-94-58.6-105.4-0.2-1.6-0.2-2.2-0.2-2.2v-0.6l-0.2-0.6c0 0-0.2-0.8-0.4-2.8s-0.2-5.2-0.2-9.2c0-28 8.6-98.6 94.2-165.4 70.8-55.2 91.8-75.4 92-75.6 14.2-13.4 20.2-29.2 20-44.4-0.2-19.6-8.6-37.8-17.4-55.2-30.2-64-62.4-109-62.6-109.2l-2.4-3.4-4-0.6c0 0-4.4-0.6-11.8-2.4-7.4-1.6-17.6-4.4-28.6-8.6-12.2-4.6-25.8-9.6-37.6-16.6 46.4 7.4 95.6 11.4 147 11.4 2 0 4-0.2 5.8-0.2-11.2 7.8-19.8 13-24 15.2-2 1-2.6 1.6-2.6 1.6l-7.6 3.8 3 7.8c24.4 65.6 58.6 115.8 89.8 151.8 17.4 20.8 53 59.4 82.2 65.2l-34-39.2c5-8.2 14.4-27.4 14.4-59 0-12.8-1.6-27.6-5.6-44.4-10.8-45.6-16-58.8-20.4-65.4-1.4-2-3.2-4.8-8.2-5.4-1-0.4-2.8-0.8-5.6-1.6-4.2-1.2-10.2-3.2-17.6-6-11.4-4-25.8-9.8-40.8-17.6 1-0.6 1.6-1.2 2.6-1.8 2.8-2.2 3.8-3.6 5.6-5.8 53-2 101.6-8 148.4-17.8-8.4 7.2-19.4 15.8-29.4 23.2-14.4 10.6-26.6 18.8-26.6 19l-4.6 3.2 0.4 5.4c11.4 131.8 41.8 187.6 55.4 206.4-51 26.6-129 60.8-129 60.8 111.8-20 171.8-64 180.2-70.6 23.4-15.4 51.6-36.2 87.4-66.4-5.8 15.4-14.6 35.2-27 57.4-28.2 50.4-75.8 112-152 156.6-42.4-21.4-87.8-36-132-36-6.4 0-12.6 0.4-18.8 1-68 4.4-125 56.8-132.2 126.6-0.4 3.8-0.6 7.8-0.8 11.8 12-64.4 68.2-109.8 128.6-118.6 2-0.2 4.4-0.6 6.6-0.8 2.6-0.2 5-0.4 7.6-0.6 1.8 0 3.6-0.2 5.6-0.2 4 0 8 0 12 0.4v-0.4c54.4 2.4 113.4 28.8 165.4 63 44.2 28.8 83 63 110 91.2-10-0.8-19.4-1.2-28.2-1.2-38.6 0-62.8 7-63.6 7.2l-31.8 9.2 32 9c179.2 50.4 281.4 209 318.4 278.2-68.8-45.8-251-153-512-205.6 0 0-20.2-3.8-27.2-5.2-57-16.4-85.8-69.6-85.8-69.6 9.6 38.8 49.8 72.8 66 85.4 33.6 38.4 56.4 76.4 60.2 150-13.2-7.8-30.4-14.6-52.2-17 0 0 55.4 32.4 82.4 78.2 2 3.8 4.2 7.6 6.2 11.8-14.6-5.6-35-11-60.6-11-1.4 0-2.8 0-4.2 0-3.2 0-6.4 0.2-9.4 0.2-28.2 0-52.6-3.2-68.8-10.6-16.2-7.6-23.6-16.6-23.8-32.8 0-0.4 0-0.6 0-0.8l0.4-10.2-10.4 0.4h-0.6c-3.8 0-30.6 1.8-55-8.2-15.4-6.6-37.2-18.6-49.4-41.4 18.4 10.6 54.6 27.8 89.6 27.8 6 0 12.2-0.2 18.8-1l19.6-1.6-17.8-15c-18.4-13.2-23.4-17.4-53.4-32.2 0.2-0.6 0.2-1.4 0.4-2l15.8 3.2c28.2 5.8 72.8 14.4 91.4 24.6l5.6 2.8c0.8-0.2 3.6-5.2 3.6-5.2zM450 134.9c0.4 1 1 2.4 1.8 4.2 3 7.6 7.6 23.2 14.8 53 3.6 15.4 5 28.8 5 40 0 20.8-4.6 34.8-8.2 42.8-3.4-3.6-7-7.2-10.8-11.2l-17.2-20c-26.6-32.4-54.8-75.2-76-129.4 4-2.4 9.4-5.8 15.8-10 33.8 18.4 65.6 28.2 74.8 30.6zM1508 829.7h69v-8.8l-27.2-11.4v-173.6l27.2-11.4v-8.8h-94.6v8.8l25.6 11.4v146.6l-69.4-168.4h-8.4l-69.6 168.4v-146.6l25.4-11.4v-8.8h-73.4v8.8l27.2 11.4v173.6l-27.2 11.4v8.8h71.8l62.2-148.2 61.4 148.2zM1634.8 730.5h-28.8v30.8c29.2 8.4 49 12.2 64.6 12.2 30.4 0 49.4-11.4 49.4-33.6v-92.8c0-6.2 1.2-8.4 10.2-10.8l17-4v-9c-30.4-9.2-37-10.8-45.2-10.8-10.4 0-15.8 4.4-19.6 17.4-26-14.2-34.8-17.4-45.4-17.4-26.2 0-43.6 16.6-43.6 40.2 0 13.6 4.6 22.4 13.6 29.6 11.4 8.8 32.8 12.8 74.4 16.4v41.2c0 16-8.8 20.8-23 20.8-1.2 0-6.4-0.2-9-0.6l-14.6-29.6zM1681.2 688.3c-37.8-6.6-48-11.4-48-28.8 0-14.8 10.4-24.6 26.8-24.6 6 0 13.2 1.2 21 3.6v49.8zM1753.4 754.7l-18.6 8.2v9.2h83.4v-9.2l-22.4-8.2 25.2-67.2c4.8-11.4 7.6-22 9-28l34 93-21.8 10.4v9.2h64.2v-9.2l-20-11.4-69.8-171.8c-10.4-26.2-26.2-35.8-54-35.8-9.2 0-17.6 1-24.6 2.8v30.6h25.8l6.4-19.2c13.6 2.2 22.8 11.2 31.2 32.6l9.2 23.6-57.2 140.4zM2068.6 694.7c0-49.8-33.8-84-83-84-48.2 0-80.2 31.4-80.2 78.4 0 49 33.4 84.6 84.4 84.6 46.8-0.2 78.8-32 78.8-79zM1947 695.7c0-43.2 14.8-69 40.4-69 25.4 0 39.8 23 39.8 63 0 43.6-15.2 69.4-41.4 69.4-25 0-38.8-23.4-38.8-63.4zM2148.4 635.7l33.4-11.4v-8.8h-101.2v8.8l27 11.4v111.4l-27 8.2v8.4l67.6 11.6v-19.8l16.6 9.8c9.8 6 22.6 9.4 31.4 9.4 6 0 11.6-1.2 19-5v-39.4h-32.4l-8.4 20.2c-2.2 0.4-4.4 0.6-7 0.6-5 0-10-0.6-18.8-4v-111.4zM2472 694.7c0-49.8-33.8-84-83-84-48 0-80.2 31.4-80.2 78.4 0 49 33.4 84.6 84.4 84.6 46.8-0.2 78.8-32 78.8-79zM2350.4 695.7c0-43.2 14.8-69 40.4-69 25.4 0 39.8 23 39.8 63 0 43.6-15.2 69.4-41.4 69.4-24.8 0-38.8-23.4-38.8-63.4zM2551.4 635.7l33.6-11.4v-8.8h-101.2v8.8l27.4 11.4v120.2h-24.2v16h24.2v8.8c0 41.2 32.6 61.2 73.4 61.2 13.6 0 26.2-1.6 38.8-5.6v-29.2h-24.6l-12.6 21c-24-1-34.8-11.4-34.8-34.2v-22h39.8v-16h-39.8v-120.2zM1339.8 451.9l-27.2 11.4v8.8h96v-8.8l-27.2-11.4v-177.8h50.6l19.8 39.6h13.4l-4.4-55.8h-148.2v8.8l27.2 11.4v173.8zM1505.6 389.7l-27.6 8.2v8.4l67.6 12v-140l26.8-11.4v-8.8h-94.2v8.8l27.6 11.4v111.4zM1548.6 462.3c0-12.8-6.6-18.8-24.2-18.8-17.8 0-23.4 6-23.4 18.8 0 13 5.8 18.8 23.4 18.8s24.2-5.8 24.2-18.8zM1580.2 396.9l-20 8.4v9.2h85v-9.2l-22.8-8.4 24.6-67.6c3.8-10 6.6-20 8-25.8l35.4 91.2-21.2 10.8v9.2h62.6v-9.2l-18.8-10.8-60.6-139.6h-17.6l-54.6 141.8zM1771.6 339.7v-2.8c0-37.8 25-61 57.8-61 11.2 0 22.2 1.2 37.6 4.8l2.2-12c-25.6-8.4-48.4-13.4-63.8-13.4-45.6 0-74.6 30.4-74.6 77.4 0 48.4 32 83.6 76.6 83.6 41.6 0 64.2-21.6 64.2-70.8v-5.6h-100zM1830 356.3v3.2c0 32.4-11.8 44-26.8 44-19.2 0-31-18-31-46.6v-6.2l57.8 5.6zM1953.2 278.3l33.4-11.4v-8.8h-101.2v8.8l27.2 11.4v111.4l-27.2 8.2v8.4l67.8 11.6v-19.8l16.6 9.8c9.8 6 22.8 9.4 31.4 9.4 5.8 0 11.6-1.4 19-5v-39.4h-32.6l-8.4 20c-2.2 0.4-4.4 0.6-7 0.6-5 0-10.2-0.6-18.8-4v-111.2zM2093.8 205.9l33.4-10.4v-9h-100.8v9l27.2 10.4v183.4l-25.8 8.2v8.6l66 11.6v-19.4c21.4 11.4 40.6 17.8 52.8 17.8 32.8 0 57.8-31 57.8-72.6 0-50.4-37.6-88.4-88-88.4-8.6 0-14.6 1-22.4 3.4v-52.6zM2093.8 272.3c5-1 7.6-1.2 13-1.2 35.6 0 56 23.6 56 66 0 38.6-14 56-44.2 56-7.4 0-11.2-0.2-24.8-2.8v-118zM2384.2 337.1c0-49.6-33.8-84-83.2-84-48 0-80.2 31.4-80.2 78.2 0 49.2 33.4 84.6 84.4 84.6 47 0.2 79-31.6 79-78.8zM2262.6 338.1c0-43 14.8-68.8 40.4-68.8 25.2 0 39.8 23 39.8 62.8 0 43.8-15.2 69.6-41.4 69.6-25 0-38.8-23.4-38.8-63.6zM2564 337.1c0-49.6-33.8-84-83.2-84-48 0-80.2 31.4-80.2 78.2 0 49.2 33.6 84.6 84.4 84.6 47.2 0.2 79-31.6 79-78.8zM2442.2 338.1c0-43 15-68.8 40.4-68.8s39.8 23 39.8 62.8c0 43.8-15.2 69.6-41.4 69.6-24.8 0-38.8-23.4-38.8-63.6zM2604.8 455.5l-28.8 7.8v8.8l69 12.6v-206.4l26.8-11.4v-8.8h-94.4v8.8l27.4 11.4v177.2zM1088 6.9h25v1014.6h-25z" />
<glyph unicode="&#xe919;" glyph-name="lcc-liverpoolcouncil" data-tags="lcc-liverpoolcouncil" horiz-adv-x="3081" d="M388.5 71.5c0.4 1 1.2 2.4 2 4.4 3.2 8 11.6 38.2 19.2 69.6 4 16.2 5 35.2 5.2 47 0.2 21.8-4.4 36.6-8.2 45.2-3.6-3.6-7.4-7.6-11.4-11.8l-18.4-20.8c-28.2-33.8-58-78.8-80.8-135.6 3.2-1.8 17.8-10 28.6-19.4 18.8 9.2 26.2 12.8 63.8 21.4zM253.3 808.3c0.6-1 6-11.4 5.8-25.8-0.2-23.8-13-61.6-68.4-108.8 0.6-15.2 1.8-54.8-0.8-47-3 9.4-7.8 18.8-12 26-1.8 2.4-2.8 4.2-4.6 5.8-1 1-1.8 2-2.8 3-52.6-45.4-61.2-98.4-62.4-110.4-0.2-1.8-0.2-2.4-0.2-2.4v-1.2c0 0-0.2-0.8-0.4-3s-0.4-5.4-0.4-9.6c-0.2-29.4 8.2-104 97.2-175 73.6-58.8 95.4-80 95.8-80.4 14.8-14.2 21-30.8 20.8-47-0.4-20.6-9.4-39.8-18.8-58-32.2-67-71.4-111-71.6-111.4l-2.4-3.4-4.2-0.6c0 0-8.8-1.8-16.6-3.6-7.8-1.6-18.2-5.6-27.8-9.2-17.4-6.6-25.4-11.4-37.6-19.6 74.6 6.8 174.6 2.8 176.6 2.6-24.2 23.6-46.4 33.6-46.4 33.6l2.2 5.6c26.2 68.8 62.4 121.2 95.4 159 18.4 21.8 56 62.2 86.8 67.8l-36-41c5.2-8.6 13.6-29.4 12.6-62.4-0.4-14.2-1.8-30.4-6-48-11.8-47.8-20.6-78-25.2-88.8-1-0.4-31-1.6-63-16.8 0.8-0.6 2.6-2.6 3.4-3.4 4.2-5.6 3.8-5 5.4-7.6 62-2 87.6-1 157.2-6.8-33.4 24.8-74.6 40.2-74.6 40.2l0.6 4.4c13.2 138.6 46.6 202.8 61.2 222.6-53.2 28.2-134.6 65.2-134.6 65.2 117-22.2 179.4-69 188.2-75.8 24.2-16.4 53.8-38.6 90.8-70.6-6 16.2-15 37.2-27.8 60.6-29.2 53.4-78.2 118.6-157.8 166.2-44.8-22.2-92.2-37-138.6-36.6-6.6 0-13.2 0.6-19.6 1.2-71.2 5.2-130.4 61-137.4 134.4-0.4 4.2-0.6 8.4-0.6 12.4 12-67.8 70.6-116.2 133.6-126 2.4-0.4 4.6-0.8 6.8-1 2.6-0.2 5.4-0.4 8-0.6 1.8-0.2 3.8-0.2 5.6-0.2 4.2 0 8.4 0 12.6 0.2v-0.4c57.2 2 119.2 29.4 173.8 64.6 46.4 30 87.6 65.6 116.2 95-10.6-0.8-20.4-1-29.6-1-40.6 0.4-65.8 8-66.6 8.2l-33.2 10 33.4 9.2c188.2 51.4 297 217.4 336.2 289.8-72.6-47.6-264.4-158.8-538.2-211.6 0 0-21.2-4-28.6-5.2-59.8-16.8-90.4-72.4-90.4-72.4 10.4 40.8 52.6 76.2 70 89.2 35.4 40 59.6 79.8 64.4 157.2-14-8-32-15.2-54.8-17.4 0 0 58.4 33.6 87 81.6 2.2 4 4.4 8 6.6 12.4-15.2-5.8-36.8-11.2-63.6-11-1.4 0-3 0-4.4 0-3.4 0.2-6.8 0.2-10 0.2-29.4 0.4-55.2-3-72.2-10.4-17-8-24.8-17.2-25.4-34.2 0-0.4 0-0.6 0-0.8l0.4-11-11 0.4c0 0 0 0-0.4 0-4 0-32.2 2.2-57.8-8-16.2-6.6-39.2-19.2-52-43.2 19.4 11 57.4 28.6 94 28.4 6.4 0 13-0.4 19.8-1.2l20.4-2-19-15.6c-19.4-13.8-24.6-18-56.2-33.4 0.2-0.6 0.2-1.4 0.4-2l16.6 3.4c29.4 5.8 76.4 14.4 96 25l6 2.8c1.2-0.2 4.2-5.4 4.2-5.4zM160.7 685.7c8.2-5 13.8-10 17.8-14.4 0 0.4 0 1 0 1.4 0 11-2.2 26.4-11.8 45.4-11.4 21.6-23 24.8-30.8 25-2.4 0-4.4-0.2-6-0.6 0.2-10.8 3.2-39.6 30.8-56.8zM136.1 754.9c11.8 0 28.8-6.8 41.2-31.4 4.8-9.4 8-18 10-26 44.2 40.6 51.6 70 51.8 85.2 0 3-0.2 5.4-0.6 7.4-44.6-12.8-75.6-17.2-106.6-20.6-0.4-5.2-2-10.6-4.8-15.8 2.4 0.6 5.4 1.2 9 1.2zM126.7 708.3c-5.6 11.4-7.6 22-8.4 29.2-6-8.6-12.4-15.6-18.8-21-14-22-18-37.8-18.2-48.2 0-4.8 0.8-8.8 1.8-11.8 1.6 2.6 3.6 4.8 5.4 6.8 3.8 4 7.4 6.6 7.4 6.6 0.2 0.2 6 5.2 12.8 12.2 6.8 7.2 14.4 17 17.4 25 0.4 0.6 0.4 0.8 0.6 1.2zM105.3 739.9c-1.6 1-3.4 2-5.6 3.2-6.2 3.4-14.4 6.4-21.6 6.6-6.2 0-10.6-0.6-16.2-7 0 0-9.2-11.6-12.8-16.6 0 0-6.8-9-7.2-9.6-5.6-6.8-10.2-8.6-10.2-8.6s6-1 11.2-0.6c18-0.2 41.4 5.6 62.4 32.6zM122.9 803.5l0.4-0.4c0.2-0.2 1.4-2.4 3.2-5.8 12 7.6 22 14.4 29.8 20-12 1.6-26-0.4-39.8-4 1.8-3.4 4-6.6 6.4-9.8zM329.7 704.9c63.6 13.2 122.4 29.4 176.2 47 14.6 57.8 19 113.8 19.4 156.6 0.2 16-0.2 30.2-0.8 42-51-99.2-103.4-163.6-146.2-204.6-18.2-17.8-34.8-31-48.6-41zM233.5 12.1c-102.8-2-139.8-8.2-139.8-8.2 18.8 21 47 47 77.8 60 18.2 7.6 26.4 10.4 46 15.2 1 1.4 45 57 74.4 121 5.2 11.6 8.6 22.6 8.6 32.4 0 11-3.2 21-14.6 32.2 0 0-1.2 1.2-4.2 4s-8 7.2-15.2 13.4c-14.4 12.6-38 32.4-74.8 61.6-94.4 75.2-105.4 157.4-104.8 191 0.2 8 0.8 13.2 1 15.2 0.4 7 6.4 70.4 67.6 124.8-0.4 0.2-0.6 0.4-1 0.8-8.8 6.4-15.4 13.4-20.4 20.4-10.2-18.6-30.2-34.8-30.8-35.4 0 0-0.6-0.4-1.8-1.4s-2.8-2.4-4.2-4c-5.4-5.6-6.6-9.4-5.2-13.4 1.6-4 8.2-12.4 8.2-12.4s-9 2.4-16.4 7.4c-1 0.4-14.4 9.6-14.2 31.6 0.2 10 0.8 20.6 7.6 34-12.2-5.2-24-7.2-34-7h-0.4c-21.8 0.2-40.6 10.2-40.6 10.2s14.4 3.6 20.6 8.2c8.2 5.8 17.6 22.8 30.2 36.8 7.4 8 16.8 11 25.4 11 12-0.2 23-5.4 30.2-9.6 4 5 6.6 11 7.8 16.2-31.4-2.8-37.8 1.8-37.8 1.8 12.8 6.6 24.4 13.2 34.8 19.4-0.6 1.6-1.4 3-1.8 4-0.4 0.8-0.6 1.2-0.8 1.4-3.6 4.8-6.4 9.2-9 13.8-23.2-8-42.4-18.8-44.2-20.8l-0.2-0.2c0 0-4.6 32.6 32.2 61-0.8 5.2-1.2 10-1.2 14.6 0.2 19.6 7 31.2 7.4 32l19.8-9.8c0 0 0 0 0-0.2-0.2-0.2-0.4-0.6-0.6-1-0.4-0.8-7.2-10.8-9.2-25 4.8 2.6 10 5.4 15.8 7.8 21.8 8.6 39.8 12.2 51.4 12.8 3 20.8 17.8 36.2 36.8 44 21.6 9.4 49.4 12.4 80.4 12 3.4 0 7 0 10.4-0.2 1.4 0 2.8 0 4 0 44-0.4 71.4 16.2 77 19.8 0.8 0.4 1 0.6 1 0.6l28.2 21-12.8-32.8c-10.2-26-21.8-46.8-33.4-63.2 0 0-9-12.2-14.6-18.6-1.8-68-18.4-112.8-43.4-149.6 15 9.8 34.8 24.8 58 47 45.4 43.8 103 115.6 158 231.4l14.4 30.4 4.6-33.4c0-0.4 4.4-32.2 4-80.4-0.4-40.8-4.2-93.4-17-148.8 181 62.6 299.2 140.2 333.4 164.2 7 4.8 10.2 7.4 10.2 7.4l30 23-14.8-34.8c-0.6-0.8-100-237.6-326.8-322.8 6.6-0.6 13.6-0.8 21.4-1 15.6-0.2 33.6 0.8 53.4 4l26.8 4.2-17.6-20.6c-28.8-33.6-79.2-80-138.4-118.4-11.2-7.2-22.8-14.2-34.6-20.6 158-101.2 194.6-265.8 195-266.8l6.8-30.8-23.4 21c-65.8 59.2-108.2 91.2-139.8 110.8-4.6-7.4-9.6-16.8-15.2-28.8-16-35-37-95.6-45.6-179.4 59-23.4 85.8-57.6 95-67 0 0-71.4 6.8-183 7.8-31.8 0.8-58.2 3.2-128 1.8zM354.5 493.5l6.8-23.8c-64.2-9.6-135.2 10.4-173.2 58.8-2.8 3.6-5.4 7.4-8 11.2 45-49 114.6-62.8 174.4-46.2zM443.5 503.5c-17.4-13.6-38.2-23.4-60.6-29.2l-7.6 26.6c12.4 5.2 24.2 11.8 35 19.6l33.2-17zM239.7 878.9c0.2-6.4-6.2-11.6-13.8-11.8-1.4 0-2.8 0.2-4.2 0.6 3.6 0.4 6.2 3.2 6.2 6.2 0 3.4-3.4 6.2-7.4 6.2s-7.2-3-7.2-6.4c0-0.2 0-0.2 0-0.2-1 1.6-1.6 3.2-1.6 5 0 2.2 0.6 4.2 1.8 5.8-8.4-5-11.6-11.8-11.6-11.8s1.8 19.6 20.8 23c19.8 3.6 30.2-9.2 30.2-9.2-8.8 2.8-16 3.6-22.2 3.2 5-1.6 8.8-5.8 9-10.6zM1006.3 1020.7h20.2v-1017.4h-20.2v1017.4zM1237.3 793.5l-28 11.6v9h98.6v-9l-27.8-11.6v-183.4h52l20.4 40.8h13.6l-4.6-57.4h-152.2v9l28 11.8zM1455.1 804.1c0-13.4-6.8-19.4-25-19.4s-24 6.2-24 19.4c0 13.2 5.8 19.4 24 19.4 18 0.2 25-6 25-19.4zM1410.9 729.1l-28.2 8.4v8.8l69.4 12.4v-144.4l27.6-11.8v-9h-97v9l28.2 11.8v114.8zM1492.9 736.7l-20.4 8.8v9.4h87.4v-9.4l-23.4-8.8 25.4-69.8c4-10.4 6.8-20.4 8.2-26.6l36.4 94.2-21.8 11v9.4h64.2v-9.4l-19.2-11-62.4-144.2h-18.2l-56.2 146.4zM1747.7 694.7v3.2c0 33.4-12 45.4-27.6 45.4-19.8 0-31.8-18.6-31.8-48v-6.6l59.4 6zM1688.1 677.5v-3c0-39 25.6-63 59.4-63 11.4 0 22.6 1.2 38.6 4.8l2.2-12.4c-26.2-8.8-49.6-14-65.6-14-46.8 0-76.6 31.4-76.6 79.8 0 50 32.8 86.4 78.8 86.4 42.6 0 66-22.4 66-73v-5.8h-102.8zM1880.1 614.3l34.4-11.6v-9h-103.8v9l28 11.6v114.8l-28 8.4v8.8l69.4 12v-20.4l17.2 10c10 6.2 23.4 9.8 32.2 9.8 6.2 0 12-1.2 19.4-5.2v-40.6h-33.4l-8.8 20.8c-2.2 0.4-4.6 0.6-7.2 0.6-5.2 0-10.4-0.6-19.4-4.2v-114.8zM2027.9 608.1c5.2-1 7.8-1.2 13.2-1.2 36.6 0 57.4 24.4 57.4 68.2 0 40-14.2 57.8-45.4 57.8-7.4 0-11.4-0.4-25.4-3v-121.8zM2027.9 539.5l34.4-10.8v-9.4h-103.6v9.4l28 10.8v189.2l-26.6 8.4v8.8l67.8 12v-20.2c22 11.6 41.6 18.4 54.2 18.4 33.8 0 59.4-32.2 59.4-75 0-52-38.6-91.2-90.6-91.2-8.8 0-15 1-23 3.6v-54zM2204.3 675.9c0-44.4 15.2-71 41.6-71 26 0 41 23.8 41 64.8 0 45.2-15.6 71.8-42.6 71.8-25.6 0-40-24-40-65.6zM2329.3 674.9c0-51.2-34.8-86.6-85.4-86.6-49.4 0-82.4 32.4-82.4 80.8 0 50.6 34.4 87.4 86.6 87.4 48.4 0 81.2-32.8 81.2-81.6zM2392.3 675.9c0-44.4 15.2-71 41.6-71 26 0 41 23.8 41 64.8 0 45.2-15.6 71.8-42.6 71.8-25.8 0-40-24-40-65.6zM2517.3 674.9c0-51.2-34.8-86.6-85.4-86.6-49.4 0-82.4 32.4-82.4 80.8 0 50.6 34.4 87.4 86.6 87.4 48.4 0 81.2-32.8 81.2-81.6zM2562.3 796.9l-29.4 8.2v9l70.6 13v-212.8l27.6-11.8v-9h-97v9l28.2 11.8zM1382.7 289.5h15l-4.2-54.6c-36-8.8-53-11.4-74-11.4-68.4 0-110 41.8-110 109.4 0 71.8 47 117.8 121 117.8 20.8 0 39-2.2 65-9.8v-54.6h-14.6l-16.6 45.2c-4.2 1-10.4 1.4-18.2 1.4-62 0-92.2-41-92.2-98.8 0-57.4 33.2-92.6 86.4-92.6 10.4 0 16 0.6 24 2.2l18.4 45.8zM1491.9 437.5c0-13.2-6.8-19.4-25-19.4s-24 6.2-24 19.4c0 13.4 5.8 19.6 24 19.6s25-6.2 25-19.6zM1447.9 362.5l-28.2 8.4v8.8l69.4 12.4v-144.4l27.6-11.6v-9h-97v9l28.2 11.6v114.8zM1513.7 371.7v11.4c18.2 5.4 26.2 9.4 33.2 15.6 6.4 6.2 11.6 14 19.8 30.4h12.6v-41h51.2v-16.6h-51.2v-103c0-20.4 13-24.4 29.6-24.4 3.6 0 16 1 21.8 2l3.2-13c-36.6-8.8-42.6-9.8-53.6-9.8-24.4 0-41.8 7.8-41.8 36v112h-24.8zM1659.1 370.3l-19.2 8.4v9.4h85.6v-9.4l-23-8.4 26-69.4c4.8-11.6 7.8-22.6 9-28.8l35 96-22.4 10.8v9.4h66v-9.4l-20.4-11.6-71.8-177.2c-10.8-27-27-37-55.4-37-9.8 0-18.2 1-25.4 3v31.4h26.6l6.6-19.8c14 2.2 23.4 11.6 32.2 33.8l9.4 24.4-58.8 144.4zM2085.3 289.5h15l-4.2-54.6c-36-8.8-53-11.4-74-11.4-68.4 0-110 41.8-110 109.4 0 71.8 47 117.8 121 117.8 20.8 0 39-2.2 65-9.8v-54.6h-14.6l-16.6 45.2c-4.2 1-10.4 1.4-18.2 1.4-62 0-92.2-41-92.2-98.8 0-57.4 33.2-92.6 86.4-92.6 10.4 0 16 0.6 24 2.2l18.4 45.8zM2164.7 309.3c0-44.4 15.2-71 41.6-71 26 0 41 23.6 41 64.8 0 45.2-15.6 71.8-42.6 71.8-25.6 0-40-24-40-65.6zM2289.7 308.3c0-51.2-34.8-86.6-85.4-86.6-49.4 0-82.4 32.4-82.4 80.8 0 50.6 34.4 87.4 86.6 87.4 48.4 0 81.2-32.8 81.2-81.6zM2425.1 241.1c-36.4-14.6-46-17.6-58.4-17.6-19.8 0-41.8 13-41.8 48.4v90.8l-28 8.2v8.8l69.2 12v-106.2c0-28.2 9.4-37.4 33.8-37.4 8.8 0 12.6 0.4 25.4 3v111.6l-28 8.2v8.8l69.2 12v-140.2l26.6-7.4v-9.4l-67.8-13v19.4zM2581.1 247.7l24.6-11.6v-9h-94.2v9l28.2 11.6v115l-28.2 7.8v8.8l69.4 12.4v-18.6c38.6 15.6 43.2 16.6 57.8 16.6 27.2 0 42.2-18.2 42.2-48v-93.8l28.2-11.6v-9h-90.6v9l21.4 11.6v85c0 21.8-10.8 32.4-31.8 32.4-10.8 0-17.2-0.4-27.2-2.6v-115zM2854.3 345.3h-28l-15.2 30.6h-2.6c-28.8 0-49.6-27.6-49.6-65.6 0-41.8 22-65.2 62.4-65.2 9.8 0 16.2 0.6 31.8 4.2l2.2-13c-29.8-8.8-47.8-12.6-63.6-12.6-44.4 0-75.6 32.4-75.6 78.8 0 52 36.4 87.4 90.6 87.4 14.6 0 28.2-2.2 47.8-7.2v-37.4zM2949.3 437.5c0-13.2-6.8-19.4-25-19.4s-24 6.2-24 19.4c0 13.4 5.8 19.6 24 19.6 18 0 25-6.2 25-19.6zM2905.1 362.5l-28.2 8.4v8.8l69.4 12.4v-144.4l27.6-11.6v-9h-97v9l28.2 11.6v114.8zM3009.9 430.5l-29.6 8v9.2l70.8 13v-213l27.6-11.8v-9h-97v9l28.2 11.8z" />
<glyph unicode="&#xe91a;" glyph-name="lcc-lifestyles" data-tags="lcc-lifestyles" horiz-adv-x="4010" d="M244 984h-100.4l-142-718h404.2l14.4 64h-303.6zM492.2 266h93.6l101.4 512h-93.4zM684.6 1004.4c-37.8 0-65.2-29.2-70.4-55.2-5.2-28.2 1.2-63.6 47.2-63.6 45.8 0 66.2 35.4 71.6 63.6 5.2 26-10.8 55.2-48.4 55.2zM1083 778h-125l18 93.2c16.6 84.4 70.8 88.4 86 88.4 20.8 0 34.8-3.2 49.8-7.2l30.2 47.8c-19.8 16.6-51.2 21.8-78 21.8-58.6 0-160.4-41.4-187.4-180.8l-12.4-63.2h-83.2l-10.8-58h83.6l-90.8-454h93.6l90.8 454h125l10.6 58zM1355 791.6c-117.8 0-263-83.2-298-263.2-35.8-183.4 52.2-283.8 214.6-283.8 54.4 0 123 21.8 184.4 60.2l-16.8 50.8c-41.8-27-103.8-43-151.6-43-102.8 0-158.4 101.6-137 201.6h351c37 131.8 11.6 277.4-146.6 277.4zM1428.4 572h-259.2c16 74 71.6 150 171.6 150 82.4 0 103.4-66 87.6-150zM1632 653.4c-12.4-71.2 33.4-105.8 85.2-147.4 42.4-34.6 92-59.6 81.4-120.2-8.8-51.2-57.6-75-101.4-76-41.6-0.8-78 22.4-103 50l-55.4-54.2c27.4-39 89.8-63.8 148.8-62.8 96.2 1.8 192.6 63 208.4 150.8 12.6 73-23.6 115.2-81.2 165-51.6 44-95.8 65-88.2 109 7.6 43.8 53.2 60.4 86.6 61 10 0.2 18.4-0.8 23.8-1.8 31-5.2 53.4-20 66-30.2 15 16.2 30 32.6 44.8 48.8-21 16.6-63 44-119.4 45.6-91.4 3-183.4-63.2-196.4-137.6zM2255.4 329.2c-19.4-9.4-40.6-17.4-75.2-17.4-57.4 0-63.6 42-49 114.8l57 293.4h136.6l10.4 58h-136.8l30.8 155.8-100.2-31-24-124.8h-72.6l-10.6-58h72.8l-60.6-311c-21-106.2 17.6-165.8 121.8-165.8 35.4 0 76.4 13 112.4 33.6l-12.8 52.4zM2822.2 788.4c-80.8-132.4-160.8-264.4-245.6-422.4h-2c-21.8 158-50 290.2-77.2 422.4l-99-26.4 111.6-475.4c-113.8-206.2-162.8-222.6-227.6-222.6h-36.6l-12.8-62h47c89.2 0 165.8 55.4 236 165.8l384.8 602-78.6 18.6zM2857.2 266h93.6l148.8 756h-93.8zM3420 791.6c-117.4 0-263-83.2-297.8-263.2-35.8-183.4 52.2-283.8 215-283.8 54 0 122.6 21.8 184.2 60.2l-17 50.8c-41.8-27-103.2-43-151.6-43-103 0-158.4 101.6-137 201.6h351.4c36.4 131.8 11.2 277.4-147.2 277.4zM3493.8 572h-259.6c16 74 72 150 171.6 150 82.4 0 103.4-66 88-150zM3873.4 727.4c28.6 0 56.6-8.6 89.6-33.6l45.4 48c-21.6 27.2-67.4 48-118.6 48-91.6 0-182.8-52.2-199-134.4-13.6-70.8 31.2-106.4 82.4-149 42.2-35.4 91.2-61.2 79.2-121.8-9.6-51-58.8-74-102.6-74-41.8 0-78 23.8-102.6 52l-56.2-53.2c26.4-39.4 88.4-65.6 147.8-65.6 95.6 0 193.8 59.4 210.8 147 14.4 72.8-21.4 115.6-78.2 166.4-50.6 45-94 66.8-85.6 110.6 8.8 44 54.2 59.6 87.6 59.6z" />
<glyph unicode="&#xe980;" glyph-name="heart-empty" data-tags="heart-empty" d="M14.5 694.2c0 90 27.4 166.8 82 230.4s120.6 95.2 197.8 95.2c77.2 0 143.2-31.8 197.8-95.2l19.2-23 20.6 23c54.6 63.6 120.6 95.2 197.8 95.2s143.2-31.8 197.8-95.2c54.6-63.6 82-140.4 82-230.4 0-90.8-27.4-168-82-231.6l-371.4-436.6c-12.8-14.4-27.8-21.8-44.6-21.8-16 0-30.6 7.2-43.4 21.8l-371.4 436.6c-54.8 64.4-82.2 141.6-82.2 231.6zM77.3 694.2c0-68.4 21.2-128.2 64-179.8l370.2-437.8 371.4 437.8c42.6 49.8 64 109.8 64 179.8 0 69.2-21.4 128.6-64 178.4s-93.6 74.8-153.2 74.8c-61.2 0-112.6-25-154.4-74.8l-64-73.6-62.8 73.6c-42.6 49.8-94 74.8-154.4 74.8-59.6 0-110.6-25-153.2-74.8-42.4-49.8-63.6-109.2-63.6-178.4z" />
<glyph unicode="&#xea2d;" glyph-name="lcc-weights" data-tags="lcc-weights" d="M68.5 453.501c-16.6 16.2-25 36.2-25 59.8s8.4 43.4 25 59.8c16.6 16.2 36.4 24.4 59.2 24.4h123.2v206.2c0 22.8 8 41.8 23.8 57.4 15.8 15.4 35.2 23.2 58 23.2s42-7.8 58-23.2c15.8-15.4 23.8-34.6 23.8-57.4v-206.2h72v314.6c0 30.8 11 57.4 33 79.2s48.4 33 79.2 33h2.4c30.8 0 57.4-11 79.2-33 22-22 33-48.4 33-79.2v-314.6h267.2v-46.4h-267.2v-75.6h267.2v-46.4h-267.2v-317.2c0-31-11-57.4-33-79.2-22-22-48.4-33-79.2-33h-2.4c-31 0-57.4 11-79.2 33s-33 48.4-33 79.2v317.2h-72v-208.6c0-22.8-8-41.8-23.8-57.4-15.8-15.4-35.2-23.2-58-23.2s-42 7.8-58 23.2c-15.8 15.4-23.8 34.6-23.8 57.4v208.6h-123.2c-22.8 0-42.6 8.2-59.2 24.4zM100.9 540.101c-7.4-7.4-11-16.2-11-26.8s3.6-19.6 11-26.8 16.2-11 26.8-11h123.2v75.6h-123.2c-10.6 0-19.6-3.6-26.8-11zM414.3 475.501h72v75.6h-72v-75.6z" />
<glyph unicode="&#xf000;" glyph-name="glass" data-tags="glass" d="M128.728 768.751c0 85.217 25.605 161.832 77.215 230.045 11.802 16.803 28.606 25.205 50.61 25.205h510.895c22.004 0 38.808-8.402 50.61-25.205 51.41-68.213 77.215-145.028 77.215-230.045 0-100.42-34.007-187.037-101.82-260.451-68.013-73.414-151.030-114.222-249.649-122.624v-321.263h255.45c8.402 0 15.803-3.201 22.204-9.402 6.401-6.401 9.602-14.203 9.602-23.405s-3.201-16.803-9.602-22.804c-6.401-6.001-13.603-8.802-22.204-8.802h-574.107c-8.402 0-15.803 3.001-22.204 8.802s-9.602 13.403-9.602 22.804c0 9.202 3.201 17.003 9.602 23.405 6.201 6.401 13.603 9.402 22.204 9.402h255.45v321.263c-98.619 8.402-181.836 49.21-249.649 122.624-68.413 73.214-102.22 160.031-102.22 260.451zM193.141 768.751c0-88.417 31.206-164.032 93.618-226.244 62.412-62.412 137.427-93.618 225.044-93.618s162.632 31.206 225.044 93.618c62.412 62.412 93.618 137.827 93.618 226.244 0 71.614-21.004 135.827-63.212 192.238h-510.895c-42.008-56.611-63.212-120.624-63.212-192.238zM266.555 695.337c-2.601 9.202-0.8 18.604 5.001 27.805 5.801 8.402 14.803 12.602 26.605 12.602h427.484c11.802 0 20.604-4.201 26.605-12.602 5.801-9.202 7.601-18.604 5.001-27.805-16.803-54.811-47.209-98.619-91.018-131.426-44.809-34.607-96.019-51.81-154.23-51.81-56.411 0-107.821 17.203-154.23 51.81-44.009 32.806-74.415 76.615-91.218 131.426z" />
<glyph unicode="&#xf001;" glyph-name="music" data-tags="music" d="M66.6 160.1c0 48.6 20.8 88.4 62.6 119.4 37.2 27 79.6 40.6 127.6 40.6 49.4 0 92-13.6 127.6-40.6v552c0 31.6 15.4 52.2 46.4 61.4l445.4 128.8c7.8 1.6 13.4 2.4 17.4 2.4 13.2 0 26-4.2 38.4-12.8 17-13.2 25.4-30.2 25.4-51v-672.6c0-48-20.8-87.4-62.6-118.2-36.4-27.8-79.2-41.8-128.8-41.8-47.2 0-89.8 13.8-127.6 41.8-41.8 31-62.6 70.4-62.6 118.2 0 48.6 20.8 88.6 62.6 119.4 35.6 27 78 40.6 127.6 40.6 49.4 0 92-13.6 127.4-40.6v325.8l-445.2-127.8v-445.2c0-47.8-21-87.8-62.6-119.4-35.6-27-78.4-40.6-128.8-40.6-49.4 0-92 13.6-127.6 40.6-41.8 31-62.6 71-62.6 119.6zM166.8 227.9c-25.2-19-37.8-41.6-37.8-67.8 0-26.4 12.6-49 37.8-67.8 25.2-19 55-28.4 89.8-28.4 35.6 0 65.6 9.2 90.6 27.8 24.8 18.6 37 41.4 37 68.4s-12.4 49.8-37 68.4c-24.8 18.6-55 27.8-90.6 27.8-34.8 0-64.6-9.4-89.8-28.4zM448 671.5l445.2 127.8v161l-445.2-128.8v-160zM676.4 355.5c-24.8-19-37-41.6-37-67.8s12.4-48.8 37-67.8c24.8-19 54.6-28.4 89.4-28.4 35.4 0 65.6 9.4 90.4 28.4s37 41.6 37 67.8c0 27-12.4 49.8-37 68.4-24.8 18.6-55 27.8-90.4 27.8-34.8 0-64.6-9.4-89.4-28.4z" />
<glyph unicode="&#xf002;" glyph-name="search" data-tags="search" d="M115.9 368.501c-74.6 75-112 165.6-112 271.6s37.2 196.4 111.4 271c74.2 74.6 164.4 111.8 270.4 111.8 105.2 0 194.8-37.4 269.2-111.8 74.2-74.6 111.4-165 111.4-271 0-58.2-12.2-113.2-36.8-165.2l253.8-256c24.4-24.8 36.8-54.6 36.8-89.8s-12.2-65.4-36.8-91c-24.6-24.8-54.2-37-89-37-35.6 0-65.6 12.4-90.2 37l-254.8 256c-53-25.6-107.4-38.2-163.6-38.2-105.2 0.2-195 37.6-269.8 112.6zM160.9 865.701c-62-62.6-93-137.8-93-225.6s31-163 93-225.6c62-62.6 137-94 224.6-94 87 0 161.6 31.2 224 94 62.4 62.6 93.6 137.8 93.6 225.6s-31.2 163-93.6 225.6c-62.4 62.6-137.2 94-224 94-87.6 0-162.4-31.4-224.6-94zM606.1 327.901l243-244.2c14.2-12.8 29.2-19.2 45-19.2 17.4 0 32 6.4 43.8 19.2 12.6 12.8 19 27.8 19 44.8 0 17.2-6.4 32.2-19 44.8l-241.8 244.2c-26-35.8-56-65.8-90-89.6z" />
<glyph unicode="&#xf003;" glyph-name="envelope" data-tags="envelope" horiz-adv-x="1400" d="M-0.1 204.799v614.4c0 56.6 17 104.8 51 144.8s75.4 60 124.4 60h1049.4c48.8 0 90.4-20 124.4-60s51-88.2 51-144.8v-614.4c0-56.6-17.2-105-51.6-144.8-34.4-40-75.6-60-123.8-60h-1049.4c-48 0-89.4 20-123.8 60-34.4 39.8-51.6 88.2-51.6 144.8zM86.9 204.799c0-28.4 8.8-52.4 26.2-72.4s38.2-30 62.2-30h1049.4c24 0 44.8 10 62.2 30s26.2 44.2 26.2 72.4v614.4c0 28.2-8.8 52.4-26.2 72.4s-38.2 30-62.2 30h-1049.4c-24 0-44.8-10-62.2-30s-26.2-44.2-26.2-72.4v-614.4zM176.5 753.599c-3.4 13.8-2 26.8 3.8 39.4 5.8 12.4 14.6 20.6 26.2 24.4s22.8 2.2 33.6-4.4l460-293.4 460 293.4c10.8 6.6 22 8.2 33.6 4.4s20.2-11.8 26.2-24.4c5.8-12.4 7-25.6 3.8-39.4-3.4-13.8-10.4-24-21.2-30.6l-481.2-307.2c-6.6-4.2-13.6-6.2-21.2-6.2-7.4 0-14.6 2-21.2 6.2l-481.2 307.2c-11 6.6-18 16.8-21.2 30.6z" />
<glyph unicode="&#xf004;" glyph-name="heart-fill" data-tags="heart-fill" d="M10.6 695.7c0 90.8 27.6 168.2 82.6 232.2 55.2 64 121.6 96 199.4 96s144.2-32 199.4-96l19.4-23.2 20.6 23.2c55.2 64 121.6 96 199.4 96s144.4-32 199.4-96c55.2-64 82.6-141.4 82.6-232.2 0-91.6-27.6-169.4-82.6-233.6l-374.6-440.2c-13-14.6-28-21.8-45-21.8-16.2 0-30.8 7.2-43.8 21.8l-374.6 440.2c-54.6 65-82.2 142.8-82.2 233.6z" />
<glyph unicode="&#xf005;" glyph-name="star-fill" data-tags="star-fill" d="M5.9 583.3c-6 21-5.6 41.8 1.2 62.2 6 20.4 17.4 36.8 34 49.2s35.4 18.6 56.6 18.6h231.8l93.8 240.8c7.6 18.8 19.4 34 35.6 45.2 16.2 11.4 33.8 17 52.6 17 19.6 0 37.6-5.6 53.8-17s28-26.4 35.6-45.2l93.8-240.8h231.8c20.4 0 38.8-6.2 55.4-18.6s28.2-28.8 35-49.2c6.8-20.4 7.2-41.2 1.2-62.2-6-21.2-17.4-38-34-50.8l-198-158.4 69-235.2c6-21.2 5.8-41.8-0.6-62.2s-18-37-34.4-49.8c-17.4-12.8-36.2-19.2-56.6-19.2-19.6 0-37.8 6-54.2 18l-198 144.8-196.8-144.8c-16.6-12-35-18-55.4-17.6s-38.8 6.6-55.4 18.6c-16.6 12.8-28.2 29.4-34.4 49.8-6.4 20.4-6.6 41-0.6 62.2l69 235.2-198 158.4c-16.6 13-27.8 29.8-33.8 51z" />
<glyph unicode="&#xf006;" glyph-name="star" data-tags="star" d="M4.1 583.201c-6 21.2-5.6 42 1.2 62.4 6 20.4 17.4 36.8 34 49.4 16.6 12.4 35.6 18.8 56.8 18.8h232.6l94.2 241.8c7.6 19 19.4 34 35.8 45.4 16.2 11.4 33.8 17 52.8 17 19.6 0 37.6-5.6 53.8-17s28.2-26.4 35.8-45.4l94.2-241.8h232.6c20.4 0 39-6.2 55.6-18.8 16.6-12.4 28.4-29 35.2-49.4s7.2-41.2 1.2-62.4c-6-21.2-17.4-38.2-34-51l-198.6-158.8 69.2-236c6-21.2 5.8-42-0.6-62.4s-18-37-34.6-49.8c-17.4-12.8-36.2-19.2-56.8-19.2-19.6 0-37.8 6-54.4 18.2l-198.6 145.2-197.4-145.2c-16.6-12-35.2-18-55.6-17.6s-39 6.6-55.6 18.8c-16.6 12.8-28.2 29.6-34.6 50s-6.6 41.2-0.6 62.4l69.2 236-198.6 158.8c-16.8 12.4-28 29.4-34.2 50.6zM63.1 624.001c-5.2-15-1.6-27.6 11.4-37.4l235-187.8-82.6-281.6c-5.2-15.4-1.6-28 11.4-37.8 12.2-9.2 24.6-9.2 37.6-0.2l234.4 172.4 235.6-172.4c4.6-3.8 10.6-5.6 18.2-5.6 6.8 0 13.2 1.8 19.4 5.6 11.4 9.8 15.2 22.2 11.4 37.4l-82.6 281.6 235 188.4c11.4 9 15.2 21.6 11.4 37.4-5.4 15.2-15.6 22.8-30.6 22.8h-276.2l-111.8 282.6c-5.4 14.4-15.2 21.6-29.6 21.6s-24.4-7.2-29.6-21.6l-110.8-282.6h-276.2c-15.2-0.2-25.4-7.6-30.8-22.8z" />
<glyph unicode="&#xf007;" glyph-name="user" data-tags="user" d="M1.9 70.5v70.6c0 15.2 4.4 29.2 13 42 91.4 135 209.4 220.8 354.2 257.6-0.8 2.4-2.8 6-6 10.8-49.6 86.2-74.4 147.8-74.4 184.6v141.4c0 67.8 21.8 126 65.6 174.4 43.6 48.4 96.2 72.4 157.6 72.4s114-24.2 157.6-72.4c43.6-48.4 65.6-106.4 65.6-174.4v-141.4c0-38.4-24.4-99.8-73.2-184.6l-7-10.8c144.8-36.8 262.8-122.6 354.2-257.6 8.6-12.8 13-26.8 13-42v-70.6c0-20-6.2-36.8-18.2-50.4-12.2-13.6-27.4-20.4-45.4-20.4h-892.4c-18.2 0-33.2 6.8-45.4 20.4-12.6 13.6-18.8 30.4-18.8 50.4zM65.7 70.5h892.4v70.6c-48.8 71.8-109.4 129.6-181.8 173.2s-150.4 67.8-233.8 72.4l1.2 1.2c37.8 56 67.2 104.6 88.6 146.2 21.2 41.6 33 69 35.4 82.6l3.6 19.2v141.4c0 48.8-15.6 90.2-46.6 124.6s-68.6 51.6-112.8 51.6c-44 0-81.6-17.2-112.8-51.6-31-34.4-46.6-75.8-46.6-124.6v-141.4c0-4.8 1.2-12.2 3.6-22.2s14.2-36.2 35.4-78.4c21.2-42.4 50.8-91.4 88.6-147.4l1.2-1.2c-83.4-4.8-161.4-29-233.8-72.4-72.4-43.6-133-101.2-181.8-173.2v-70.6z" />
<glyph unicode="&#xf008;" glyph-name="film" data-tags="film" horiz-adv-x="1132" d="M5.201 132.3v759.4c0 34.4 13.6 64.2 40.8 89s60 37.2 98.6 37.2h59v-348.2c0-16.8 5-31.6 15-44.2s22.2-19 36.4-19h617c14.2 0 26.4 6.2 36.4 19 10 12.6 15 27.4 15 44.2v348.2h62.8c38.6 0 71.6-12.4 99.2-37.2s41.4-54.4 41.4-89v-759.4c0-34.4-13.8-64.2-41.4-89s-60.8-37.2-99.2-37.2h-51.6v383.6c0 16.8-5 31.6-15 44.2s-22.2 19-36.4 19h-618.2c-14.2 0-26.4-6.4-36.4-19s-15-27.4-15-44.2v-383.6h-69.2c-38.6 0-71.4 12.4-98.6 37.2-27 24.8-40.6 54.4-40.6 89zM41.801 852.5h93v60.6h-93v-60.6zM41.801 726.5h93v61.8h-93v-61.8zM41.801 601.5h93v60.6h-93v-60.6zM41.801 475.3h93v61.8h-93v-61.8zM41.801 349.3h93v61.8h-93v-61.8zM41.801 224.3h93v60.6h-93v-60.6zM41.801 98.1h93v61.8h-93v-61.8zM961.601 472.9c0-0.8 0.4-1.8 1.2-2.6v2.6h-1.2zM983.001 853.9h91.8v61.8h-91.8v-61.8zM983.001 728.9h91.8v60.6h-91.8v-60.6zM983.001 602.7h91.8v61.8h-91.8v-61.8zM983.001 477.9h91.8v60.6h-91.8v-60.6zM983.001 351.7h91.8v61.8h-91.8v-61.8zM983.001 225.5h91.8v61.8h-91.8v-61.8zM983.001 100.7h91.8v60.6h-91.8v-60.6z" />
<glyph unicode="&#xf009;" glyph-name="th-large" data-tags="th-large" d="M-0.1 702.501v190.4c0 34.6 12.4 64.4 37.2 89.2s55 37.2 90.6 37.2h192.8c35.6 0 65.8-12.4 90.6-37.2s37.2-54.6 37.2-89.2v-190.4c0-34.8-12.4-64.4-37.2-89.4-24.8-24.8-55-37.2-90.6-37.2h-192.8c-35.6 0-65.8 12.4-90.6 37.2s-37.2 54.6-37.2 89.4zM-0.1 132.301v190.4c0 34.6 12.4 64.4 37.2 89.2s55 37.2 90.6 37.2h192.8c35.6 0 65.8-12.4 90.6-37.2s37.2-54.6 37.2-89.2v-190.4c0-35.4-12.4-65.6-37.2-90.4s-55-37.2-90.6-37.2h-192.8c-35.6 0-65.8 12.4-90.6 37.2s-37.2 55-37.2 90.4zM127.5 702.501h192.8v190.4h-192.8v-190.4zM127.5 132.301h192.8v190.4h-192.8v-190.4zM575.7 702.501v190.4c0 34.6 12.6 64.4 37.8 89.2s55.6 37.2 91.2 37.2h191.6c35.6 0 65.8-12.4 90.6-37.2s37.2-54.6 37.2-89.2v-190.4c0-34.8-12.4-64.4-37.2-89.4s-55-37.2-90.6-37.2h-191.6c-35.6 0-66 12.4-91.2 37.2s-37.8 54.6-37.8 89.4zM575.7 132.301v190.4c0 34.6 12.6 64.4 37.8 89.2s55.6 37.2 91.2 37.2h191.6c35.6 0 65.8-12.4 90.6-37.2s37.2-54.6 37.2-89.2v-190.4c0-35.4-12.4-65.6-37.2-90.4s-55-37.2-90.6-37.2h-191.6c-35.6 0-66 12.4-91.2 37.2s-37.8 55-37.8 90.4zM704.7 702.501h191.6v190.4h-191.6v-190.4zM704.7 132.301h191.6v190.4h-191.6v-190.4z" />
<glyph unicode="&#xf00a;" glyph-name="th" data-tags="th" d="M0.9 813.4v120c0 16.6 6.2 30.8 18.4 42.2s27.6 17.2 45.8 17.2h127.2c18.2 0 33.4-5.8 45.8-17.2 12.2-11.4 18.4-25.6 18.4-42.2v-120c0-16.6-6.4-31-19-42.8s-27.8-17.8-45.2-17.8h-127.2c-17.4 0-32.6 6-45.2 17.8-12.8 11.8-19 26.2-19 42.8zM0.9 452v120c0 16.6 6.4 31 19 42.8s27.8 17.8 45.2 17.8h127.2c17.4 0 32.4-6 45.2-17.8 12.6-11.8 19-26.2 19-42.8v-120c0-16.6-6.4-30.8-19-42.8-12.6-11.8-27.8-17.8-45.2-17.8h-127.2c-17.4 0-32.6 6-45.2 17.8-12.8 12-19 26.2-19 42.8zM0.9 91.8v120c0 16.6 6.2 30.8 18.4 42.2s27.6 17.2 45.8 17.2h127.2c18.2 0 33.4-5.8 45.8-17.2 12.2-11.4 18.4-25.6 18.4-42.2v-120c0-16.6-6.4-31-19-42.8s-27.8-17.8-45.2-17.8h-127.2c-17.4 0-32.6 6-45.2 17.8-12.8 12-19 26.2-19 42.8zM65.1 813.4h127.2v120h-127.2v-120zM65.1 452h127.2v120h-127.2v-120zM65.1 91.8h127.2v120h-127.2v-120zM383.5 813.4v120c0 16.6 6.4 30.8 19 42.2s27.8 17.2 45.2 17.2h128.4c18.2 0 33.4-5.8 45.8-17.2 12.2-11.4 18.4-25.6 18.4-42.2v-120c0-16.6-6.4-31-19-42.8s-27.8-17.8-45.2-17.8h-128.4c-17.4 0-32.6 6-45.2 17.8s-19 26.2-19 42.8zM383.5 452v120c0 16.6 6.4 31 19 42.8s27.8 17.8 45.2 17.8h128.4c17.4 0 32.4-6 45.2-17.8 12.6-11.8 19-26.2 19-42.8v-120c0-16.6-6.4-30.8-19-42.8-12.6-11.8-27.8-17.8-45.2-17.8h-128.4c-17.4 0-32.6 6-45.2 17.8-12.6 12-19 26.2-19 42.8zM383.5 91.8v120c0 16.6 6.4 30.8 19 42.2s27.8 17.2 45.2 17.2h128.4c18.2 0 33.4-5.8 45.8-17.2 12.2-11.4 18.4-25.6 18.4-42.2v-120c0-16.6-6.4-31-19-42.8s-27.8-17.8-45.2-17.8h-128.4c-17.4 0-32.6 6-45.2 17.8-12.6 12-19 26.2-19 42.8zM447.7 813.4h128.4v120h-128.4v-120zM447.7 452h128.4v120h-128.4v-120zM447.7 91.8h128.4v120h-128.4v-120zM767.5 813.4v120c0 16.6 6.2 30.8 18.4 42.2s27.6 17.2 45.8 17.2h128.4c17.4 0 32.2-5.8 44.6-17.2 12.2-11.4 18.4-25.6 18.4-42.2v-120c0-16.6-6.2-31-18.4-42.8s-27.2-17.8-44.6-17.8h-128.4c-17.4 0-32.6 6-45.2 17.8s-19 26.2-19 42.8zM767.5 452v120c0 16.6 6.4 31 19 42.8s27.8 17.8 45.2 17.8h128.4c17.4 0 32.2-6 44.6-17.8 12.2-11.8 18.4-26.2 18.4-42.8v-120c0-16.6-6.2-30.8-18.4-42.8-12.2-11.8-27.2-17.8-44.6-17.8h-128.4c-17.4 0-32.6 6-45.2 17.8-12.6 12-19 26.2-19 42.8zM767.5 91.8v120c0 16.6 6.2 30.8 18.4 42.2s27.6 17.2 45.8 17.2h128.4c17.4 0 32.2-5.8 44.6-17.2 12.2-11.4 18.4-25.6 18.4-42.2v-120c0-16.6-6.2-31-18.4-42.8s-27.2-17.8-44.6-17.8h-128.4c-17.4 0-32.6 6-45.2 17.8-12.6 12-19 26.2-19 42.8zM831.7 813.4h128.4v120h-128.4v-120zM831.7 452h128.4v120h-128.4v-120zM831.7 91.8h128.4v120h-128.4v-120z" />
<glyph unicode="&#xf00b;" glyph-name="th-list" data-tags="th-list" d="M2 896.6c0 35 12.2 65 36.6 90s54.4 37.4 90 37.4c35.6 0 65.8-12.4 90.6-37.4s37.2-55 37.2-90c0-35.8-12.4-66.2-37.2-91.2s-55-37.4-90.6-37.4c-35.6 0-65.6 12.4-90 37.4s-36.6 55.4-36.6 91.2zM38.6 420.8c-24.4 25-36.6 55.4-36.6 91.2s12.2 66.2 36.6 91.2c24.4 25 54.4 37.4 90 37.4s65.8-12.4 90.6-37.4c24.8-25 37.2-55.4 37.2-91.2s-12.4-66.2-37.2-91.2c-24.8-25-55-37.4-90.6-37.4-35.4 0-65.4 12.4-90 37.4zM2 127.4c0 35.8 12.2 66.2 36.6 91.2s54.4 37.4 90 37.4c35.6 0 65.8-12.4 90.6-37.4s37.2-55.4 37.2-91.2c0-35-12.4-65-37.2-90s-55-37.4-90.6-37.4c-35.6 0-65.6 12.4-90 37.4s-36.6 55-36.6 90zM352.4 896.6c0 17.4 6.2 32.4 18.6 45 12.4 12.4 27.4 18.8 44.8 18.8h541.6c18.2 0 33.6-6.2 46-18.8 12.4-12.4 18.6-27.4 18.6-45 0-18.4-6.2-33.8-18.6-46.2s-27.8-18.8-46-18.8h-541.6c-17.4 0-32.4 6.2-44.8 18.8-12.4 12.4-18.6 27.8-18.6 46.2zM371 557c-12.4-12.4-18.6-27.4-18.6-45s6.2-32.4 18.6-45c12.4-12.4 27.4-18.8 44.8-18.8h541.6c18.2 0 33.6 6.2 46 18.8 12.4 12.4 18.6 27.4 18.6 45s-6.2 32.4-18.6 45c-12.4 12.4-27.8 18.8-46 18.8h-541.6c-17.4-0.2-32.4-6.4-44.8-18.8zM352.4 127.4c0 18.4 6.2 33.8 18.6 46.2s27.4 18.8 44.8 18.8h541.6c18.2 0 33.6-6.2 46-18.8 12.4-12.4 18.6-27.8 18.6-46.2 0-17.4-6.2-32.4-18.6-45-12.4-12.4-27.8-18.8-46-18.8h-541.6c-17.4 0-32.4 6.2-44.8 18.8-12.4 12.4-18.6 27.4-18.6 45z" />
<glyph unicode="&#xf00c;" glyph-name="ok" data-tags="ok" d="M1.8 373.901c1.8 22.2 11.4 40.6 28.8 55.6 16.6 14.8 36.2 21.4 58.8 19.6s41.4-11 56.2-27.4l176.4-206.4 552.4 771.8c13 18.2 30.6 29.2 52.8 32.6s42.4-1.4 60.8-14.4c18.2-13 29.2-30.6 32.6-52.8s-1.2-42.4-14.4-60.8l-611.2-856.8c-15.6-21-36.6-32.2-62.6-34h-4c-25.2 0-46.2 9.6-62.6 28.8l-244.2 284.8c-15.2 17.4-21.6 37.2-19.8 59.4z" />
<glyph unicode="&#xf00d;" glyph-name="remove" data-tags="remove" d="M0 129.5c0 35.4 13 65.2 38.8 89.8l293.8 291.6-293.8 291.8c-25.8 24.4-38.8 54.4-38.8 89.8s13 66 38.8 91.8c25.8 25.8 56.4 38.8 91.8 38.8s65.2-13 89.8-38.8l291.6-293.8 291.6 293.8c24.4 25.8 54.4 38.8 89.8 38.8s66-13 91.8-38.8c25.8-25.8 38.8-56.4 38.8-91.8s-13-65.2-38.8-89.8l-293.8-291.8 293.8-291.6c25.8-24.4 38.8-54.4 38.8-89.8s-13-66-38.8-91.8c-24.4-24.4-54.4-36.8-89.8-36.8-38 0-68.6 12.2-91.8 36.8l-291.6 293.8-291.6-293.8c-23.2-24.4-53-36.8-89.8-36.8s-67.4 12.2-91.8 36.8c-25.8 25.8-38.8 56.4-38.8 91.8z" />
<glyph unicode="&#xf00e;" glyph-name="zoom-in" data-tags="zoom-in" d="M112.4 372.2c-75 72.8-112.4 160.8-112.4 264s37.4 191.2 112.4 264c75 72.8 165.4 109.2 271.6 109.2 106 0 196.6-36.4 271.6-109.2s112.4-160.8 112.4-264c0-56-12.4-109.6-37-160.8l256-248.4c24.8-24 37-53.2 37-87.6s-12.4-63.6-37-87.6c-24.8-24.8-55-37.2-91-37.2s-66.2 12.4-91 37.2l-256 248.4c-51.8-24.8-106.8-37.2-165-37.2-106 0-196.6 36.4-271.6 109.2zM157.4 855.8c-62.6-60.8-94-134-94-219.6s31.2-158.8 94-219.6c62.6-60.8 138.2-91.2 226.6-91.2 87.8 0 162.8 30.4 225.4 91.2s93.8 134 93.8 219.6c0 85.6-31.2 158.8-93.8 219.6s-137.8 91.2-225.4 91.2c-88.4 0-164-30.4-226.6-91.2zM205.8 669.2c-9.6-9.2-14.4-20.2-14.4-33s4.8-23.8 14.4-33c9.6-9.2 20.8-13.8 33.4-13.8h96.8v-92.4c0-12.8 4.6-23.8 13.8-33s20.6-13.8 34-13.8c13.6 0 25 4.6 34 13.8 9.2 9.2 13.8 20.2 13.8 33v92.4h95.6c12.8 0 24 4.6 33.6 13.8s14.4 20.2 14.4 33c0 12.8-4.8 23.8-14.4 33s-20.8 13.8-33.6 13.8h-95.6v93.6c0 12.8-4.6 23.6-13.8 32.4s-20.6 13.2-34 13.2c-13.6 0-25-4.4-34-13.2-9.2-8.8-13.8-19.6-13.8-32.4v-93.6h-96.8c-12.6 0-23.8-4.6-33.4-13.8zM606.6 332.6l244-237.6c12.8-12 28-18 45.4-18 17.6 0 32.6 6 45.4 18s19.2 26.6 19.2 43.8c0 17.2-6.4 31.8-19.2 43.8l-244 237.6c-25.4-34.4-55.8-63.6-90.8-87.6z" />
<glyph unicode="&#xf010;" glyph-name="zoom-out" data-tags="zoom-out" d="M126.4 367.5c-72.6 75.4-108.8 166.2-108.8 272.4s36.2 197 108.8 272.4c72.4 75.4 159.8 113 262 113s189.4-37.6 262-113c72.4-75.4 108.8-166.2 108.8-272.4 0-58.6-12-113.6-35.8-165.6l247.2-257c23.8-25.6 35.8-55.8 35.8-90.8s-12-65.4-35.8-90.8c-24.8-24.8-54-37-87.8-37s-63 12.4-87.8 37l-247.2 257c-49.4-25.6-102.6-38.4-159.4-38.4-102.2 0.2-189.4 37.8-262 113.2zM79.6 640.1c0-88.2 30.2-163.8 90.8-226.8s133.2-94.6 218.2-94.6c84.8 0 157.6 31.6 218.2 94.6s90.8 138.6 90.8 226.8c0 89-30 164.8-90.2 227.4s-133 94-218.8 94c-85.8 0-158.6-31.4-218.8-94-60.2-62.8-90.2-138.6-90.2-227.4zM216.6 674.1c-9-9.4-13.6-20.8-13.6-34s4.6-24.6 13.6-34c9-9.4 20.2-14.2 33.4-14.2h278c12.4 0 23 4.8 32.2 14.2 9 9.4 13.6 20.8 13.6 34s-4.6 24.4-13.6 34c-9 9.4-19.8 14.2-32.2 14.2h-278c-13.2 0-24.2-4.8-33.4-14.2zM603.4 326.1l236-244.8c11.6-12.4 26-18.6 43.2-18.6s31.6 6.2 43.2 18.6c12.4 12.4 18.6 27.4 18.6 45.2s-6.2 32.8-18.6 45.2l-234.8 246c-24.4-36.4-53.8-66.8-87.6-91.6z" />
<glyph unicode="&#xf011;" glyph-name="off" data-tags="off" d="M150.2 869.5c12.8 12.8 28 19.4 45.2 19.4s32.4-6.4 45.2-19.4c12.8-12 19.4-26.8 19.4-44 0-17.4-6.4-32.4-19.4-45.2-74.8-73.2-112.4-162.6-112.4-268s37.4-194.8 112.4-268c74-74 164.6-111 271.6-111s197.6 37 271.6 111c74.8 73.2 112.4 162.6 112.4 268s-37.4 194.8-112.4 268c-12.8 12.8-19.4 28-19.4 45.2s6.4 32 19.4 44c12.8 12.8 28 19.4 45.2 19.4s32.4-6.4 45.2-19.4c99.8-98.2 149.8-217.4 149.8-357.4s-50-259.2-149.8-357.4c-99-99-219.8-148.6-362.2-148.6s-263.2 49.6-362.2 148.6c-99.8 98.2-149.8 217.4-149.8 357.4 0.4 140 50.4 259.2 150.2 357.4zM467.2 467.3c12.4-12 27.6-18.2 45.2-18.2 17.8 0 32.8 6 45.2 18.2 12.4 12 18.8 27 18.8 44.6v442c0 17.6-6.2 32.8-18.8 45.2-12.4 12.4-27.6 18.8-45.2 18.8-17.8 0-32.8-6.2-45.2-18.8-12.4-12.4-18.8-27.6-18.8-45.2v-442c0-17.6 6.2-32.4 18.8-44.6z" />
<glyph unicode="&#xf012;" glyph-name="signal" data-tags="signal" horiz-adv-x="1326" d="M1.204 572.3c-3.4 26.2 1.8 50 15.6 71.6 75.6 116.4 168.4 208 278.6 275.2 114 67.8 236.6 101.8 367.6 101.8 130.2 0 252.4-34 366.4-101.8 111-66.2 204.2-158 279.8-275.2 13.8-21.6 19-45.4 15.6-71.6s-14-47.4-31.8-63.6c-18.6-16.2-39.2-22.4-61.8-18.6-22.8 3.8-41 16.6-55 38.2-60.8 95.6-136.2 169.4-226 221.4s-185.6 78-287.2 78c-101.8 0-197.4-26-287.2-78s-165.2-125.8-226-221.4c-17-26.2-39.4-39.2-67-39.2-17.8 0-34.4 6.6-49.8 19.6-17.8 16.2-28.4 37.4-31.8 63.6zM208.004 330.7c3.4-26.2 14-47.4 31.8-63.6 15.4-13.2 32-19.6 49.8-19.6 27.8 0 50 13.2 67 39.4 36.2 56.2 81.2 100 134.6 131.2 53.6 31.2 110.8 46.8 171.6 46.8s118-15.6 171.6-46.8c53.6-31.2 98.4-75 134.6-131.2 13.8-21.6 32.2-34.4 55-38.2s43 2.4 60.6 18.6c18.6 16.2 29.2 37.4 32.4 63.6 3 26.2-2 50-15 71.6-52.4 81.6-117 144.8-193.6 189.6-76.6 44.6-158.6 67-245.6 67s-169-22.4-245.6-67c-76.6-44.8-141.2-108-193.6-189.6-13.8-21.6-19-45.6-15.6-71.8zM415.604 89.1c-3 26.2 2 50 15 71.6 27 42.4 61 75.6 102.4 99.4 41.2 23.8 84.6 35.8 130 35.8s88.8-12 130-35.8c41.2-23.8 75.4-57 102.4-99.4 13.8-21.6 19-45.6 15.6-72.2s-14.4-47.6-33-63c-13.8-13.2-30.4-19.6-49.8-19.6-27 0-49 12.8-65.8 38.2-25.4 39.4-58.6 59-99.4 59-41.6 0-74.8-19.6-99.4-59-13.8-21.6-32.2-34.2-55-37.6s-43 2.8-60.6 19c-18.6 16.2-29.4 37.4-32.4 63.6z" />
<glyph unicode="&#xf013;" glyph-name="cog" data-tags="cog" d="M18.9 512c0 18.8 1.2 37.4 3.4 56.2 2.4 28.8 17.8 47.2 46.4 55l98 25.2c0.8 2.4 2.2 5.8 4 10.4 2 4.6 3.4 8 4 10.4l-51.2 91c-14.8 26.4-13.2 50.8 4.6 73.4 23.4 29.6 48.6 55.6 75.8 78 10 9.4 23 14 38.4 14 12.4 0 23-3.2 31.4-9.4l87.4-53.6c2.6 1.4 6.4 3.2 11.4 5s8.4 3.2 10.2 3.8l24.4 101.4c3 13.4 9.6 24.4 19.4 33.4 10 9 21 14 33.2 14.8 17.6 2.4 35.2 3.6 52.6 3.6 18.4 0 36-1.2 52.8-3.6 12.2-0.8 23.2-5.6 33.2-14.8 10-9 16.4-20.2 19.4-33.4l24.4-101.4c2.6-0.8 6.2-2 10.8-3.8s8.2-3.6 10.8-5l87.4 53.6c8.6 6.2 19 9.4 31.4 9.4 14 0 26.8-4.6 38.4-14 27.2-22.6 52.4-48.6 75.8-78 17.8-22.6 19.4-47 4.6-73.4l-51.2-91c0.8-2.2 2.2-5.6 4.2-10.2s3.4-8 4.2-10.2l97.8-25.6c28.6-7.8 44.2-26.2 46.4-55 1.6-12.4 2.4-31.2 2.4-56.2s-0.8-43.8-2.4-56.2c-2.4-28.8-17.8-47.2-46.4-55l-98-25.2c-0.8-2.4-2.2-5.8-4-10.4-2-4.6-3.4-8.2-4-10.4l51.2-91c14.8-26.4 13.2-51-4.6-73.4-23.4-29.6-48.6-55.6-75.8-78-11.6-9.4-24.4-14-38.4-14-12.4 0-23 3-31.4 9.4l-87.4 53.6c-2.6-0.8-6.2-2-10.8-4-4.6-1.8-8.2-3.6-10.8-5l-24.4-101.4c-3-13.4-9.6-24.4-19.4-33.4-10-9-21-13.8-33.2-14.6-16.8-2.4-34.4-3.6-52.8-3.6s-36 1.2-52.6 3.6c-12.2 0.8-23.4 5.6-33.2 14.6-10 9-16.4 20.2-19.4 33.4l-24.4 101.4c-1.8 0.8-5 2-10.2 3.8-5 1.8-8.8 3.6-11.4 5l-87.4-53.6c-8.6-6.2-19-9.4-31.4-9.4-15.6 0-28.4 4.6-38.4 14-28 23.4-53.2 49.8-75.8 79.2-17.8 21.8-19.4 45.8-4.6 72.2l51.2 91c-0.8 2.2-2.2 5.6-4.2 10.2s-3.4 8-4.2 10.2l-97.8 25.6c-28.6 7.8-44.2 26.2-46.4 55-2.2 18.8-3.4 37.6-3.4 56.4zM80.7 512c0-16.4 1.2-32.6 3.6-49l130.4-34.2c7-27 17.6-53 31.6-77.8l-70-120c21-26.4 43.2-49.4 66.4-68.8l116.6 72.2c19.4-12.4 43.8-23.4 73.2-32.8l34-136.2c20.2-1.6 35.8-2.4 46.6-2.4s26.4 0.8 46.6 2.4l32.8 136.2c27 8.6 51.8 19.4 74.4 32.8l116.6-72.2c23.4 19.4 45.4 42.4 66.4 68.8l-70 120c14 24.8 24.6 50.8 31.6 77.8l130.4 34c1.6 10.8 2.4 27.2 2.4 49s-0.8 38-2.4 49l-130.4 34.2c-7 27-17.6 53-31.6 77.8l70 120c-21 26.4-43.2 49.4-66.4 68.8l-116.6-72.2c-22.4 13.2-47.2 24.2-74.4 32.8l-32.8 136.2c-20.2 1.6-35.8 2.4-46.6 2.4s-26.4-0.8-46.6-2.4l-34-136.2c-29.4-9.4-53.8-20.2-73.2-32.8l-116.6 72.2c-23.4-19.4-45.4-42.4-66.4-68.8l70-120c-14-24.8-24.6-50.8-31.6-77.8l-130.4-34c-2.4-16.4-3.6-32.8-3.6-49zM381.9 376.2c-36.2 37.6-54.2 83-54.2 135.8s18 98 54.2 135.8c36.2 37.6 79.8 56.6 131.2 56.6 50.6 0 94-18.8 130.6-56.6 36.6-37.6 54.8-83 54.8-135.8s-18.2-98.2-54.8-135.8c-36.6-37.8-80-56.6-130.6-56.6-51.4 0-95 18.8-131.2 56.6zM404.1 625.6c-30-31.4-44.8-69.4-44.8-113.6s15-82.2 44.8-113.6c29.8-31.4 66.2-47.2 109-47.2s79 15.8 109 47.2c30 31.4 44.8 69.4 44.8 113.6s-15 82.2-44.8 113.6c-30 31.4-66.2 47.2-109 47.2s-79.2-15.8-109-47.2z" />
<glyph unicode="&#xf014;" glyph-name="trash" data-tags="trash" d="M84.3 767.2v64c0 17.8 6 33.2 18 46s26.6 19.2 43.6 19.2h152.2v31.4c0 26.4 9 49 27.4 68 18.2 19 39.8 28.4 64.6 28.4h244c25.6 0 47.2-9.4 65-28s26.8-41.4 26.8-68.6v-31.4h153.4c17 0 31.4-6.4 43-19.2s17.4-28 17.4-46v-64c0-17.8-5.8-33-17.4-45.4s-26-18.6-43-18.6v-575.4c0-35.6-11.8-65.8-35.4-90.6s-52.4-37.2-86.6-37.2h-489.4c-34.2 0-63 12.4-86.6 37.2s-35.4 55-35.4 90.6v575.4c-17 0-31.6 6.2-43.6 18.6-12 12.8-18 27.8-18 45.6zM145.9 767.2h733.4v64h-733.4v-64zM207.5 128c0-17.8 5.8-33 17.4-45.4s26-18.6 43-18.6h489.4c17 0 31.4 6.2 43 18.6s17.4 27.4 17.4 45.4v607.8h-610.2v-607.8zM268.1 159.4v448.6c0 8.6 3 15.8 8.8 22s13 9.4 21.6 9.4h61.6c8.6 0 15.8-3.2 21.6-9.4s8.8-13.6 8.8-22v-448.6c0-8.6-3-15.8-8.8-22s-13-9.4-21.6-9.4h-61.6c-8.6 0-15.8 3-21.6 9.4-6 6-8.8 13.4-8.8 22zM298.3 159.4h61.6v448.6h-61.6v-448.6zM359.9 896.2h305.6v31.4c0 8.6-3.2 16-9.4 22.6s-13.6 9.8-22 9.8h-244c-7.8 0-14.8-3.4-21-9.8-6.2-6.6-9.4-14.2-9.4-22.6v-31.4zM451.7 159.4v448.6c0 8.6 3 15.8 8.8 22s13 9.4 21.6 9.4h61.6c8.6 0 15.8-3.2 21.6-9.4s8.8-13.6 8.8-22v-448.6c0-8.6-3-15.8-8.8-22s-13-9.4-21.6-9.4h-61.6c-8.6 0-15.6 3-21.6 9.4-6 6-8.8 13.4-8.8 22zM481.9 159.4h61.6v448.6h-61.6v-448.6zM634.1 159.4v448.6c0 8.6 3 15.8 9.4 22 6.2 6.2 13.6 9.4 22 9.4h60.4c8.6 0 15.8-3.2 22-9.4s9.2-13.6 9.2-22v-448.6c0-8.6-3.2-15.8-9.2-22-6.2-6.2-13.6-9.4-22-9.4h-60.4c-8.6 0-15.8 3-22 9.4-6.2 6-9.4 13.4-9.4 22zM665.5 159.4h60.4v448.6h-60.4v-448.6z" />
<glyph unicode="&#xf015;" glyph-name="home" data-tags="home" d="M22.8 486.9c-10.2 26.6-5.8 50.2 13 70.6l105.8 109.4v229.2c0 18 6 33.4 18.2 45.8 12.2 12.6 26.4 18.8 43 18.8h123.4c28.2 0 47.8-13.8 58.8-41.2l83.4 87c12.6 12.6 27 18.8 43.6 18.8 16.4 0 31-6.2 43.4-18.8l432.8-449.2c18.8-20.4 23.2-44 13-70.6-11-26.6-29.8-40-56.4-40h-62.4v-384.6c0-17.2-6-32.2-18.2-44.6-12.2-12.6-26.4-18.8-43-18.8h-618.6c-16.4 0-30.8 6.2-43 18.8s-18.2 27.4-18.2 44.6v384.6h-62.4c-26.4 0.2-45.2 13.6-56.2 40.2zM79.2 511.5h123.4v-449.2h155.2v417.4c0 8.6 3 16 8.8 22.4 5.8 6.2 13.2 9.4 21.8 9.4h247c8.6 0 15.8-3.2 21.8-9.4 5.8-6.2 8.8-13.8 8.8-22.4v-417.4h155.2v449.2h123.4l-432.8 449.2-185.8-192.8v128.2h-123.4v-256.4l-123.4-128.2zM388.6 62.3h247v417.4h-247v-417.4z" />
<glyph unicode="&#xf016;" glyph-name="file" data-tags="file" d="M137.1 62.5v898.8c0 18.4 6 33.6 17.8 46 12 12.4 26.6 18.6 44.2 18.6h437.4c16.6 0 31.4-6.4 44.2-19.2l187.2-192.6c12.8-12.8 19-28 19-45.4v-706c0-17.6-6.2-32.8-18.4-45.4-12.4-12.8-27.2-19.2-44.8-19.2h-624.6c-17.4 0-32.2 6.2-44.2 18.6-12 12-17.8 27.4-17.8 45.8zM199.1 62.5h624.6v673.8h-187.2c-8.8 0-16 3.2-22 9.6s-9 14-9 22.8v192.6h-406.6v-898.8zM636.5 768.5h187.2l-187.2 192.6v-192.6z" />
<glyph unicode="&#xf017;" glyph-name="time" data-tags="time" d="M150.6 155.5c-99.6 98.4-149.2 217-149.2 356s50 257.8 149.8 356.6c100 98.8 220.2 148 360.8 148s260.8-49.4 360.8-148c99.8-98.8 149.8-217.6 149.8-356.6s-49.8-257.6-149.2-356c-99.6-98.4-220-147.4-361.2-147.4-141.6-0.2-262 49-361.6 147.4zM65.4 511.5c0-122.4 43.4-226.2 130.4-311.6 87.6-86 193-129.2 316.2-129.2 122.4 0 227.4 43 315 129.2 87.6 85.2 131.4 189.2 131.4 311.6s-43.8 226.6-131.4 312.8c-87.6 86-192.6 129.2-315 129.2-123.2 0-228.6-43-316.2-129.2-87-87-130.4-191.2-130.4-312.8zM448 511.5v315c0 17.4 6.2 32.2 18.4 44.4s27.4 18.4 45.6 18.4c17.4 0 32.4-6.2 45-18.4s19-27 19-44.4v-278.4l190.8-107.8c15.8-8.8 25.8-21.4 30.2-38s2.2-32.4-6.6-47.4c-11.8-21.4-30.4-32-55.6-32-11 0-21.8 2.8-32 8.2l-222.8 125.6c-21.4 12.8-32 31-32 54.8z" />
<glyph unicode="&#xf018;" glyph-name="road" data-tags="road" horiz-adv-x="1326" d="M14.399 78.1c6.4 23 16.8 48 31.4 74.8l465.6 840c5.4 9.2 14.2 13.8 26 13.8l157 5.6-1.4-8.4c-1-3.8 0.4-7 4-9.8s8.2-4.2 13.6-4.2l6.8 1.4c12.8 0 19.2 4.6 19.2 13.8v8.4l155.6 4.2c12.8 1.8 21-2.4 24.6-12.4l381-834.4c18.2-39.8 27.6-74.6 28-104.6s-8.4-45.6-26.6-46.4l-562.6-7v594.6c0 14.8-3.4 26.8-10.2 36s-15.2 13.8-25.2 13.8h-11c-10 0-18.8-5-26.6-15.2s-12.6-22.6-14.4-37.4l-65.6-593.2-555.6-7c-23.8 0.2-28.2 24.6-13.6 73.6zM668.199 780.9c-1-9.2 1.2-17.4 6.2-24.2 5-7 12-10.4 21.2-10.4h11c8.2 0 15.2 3.4 21.2 10.4s8.8 15.4 8.8 25.6v158c0 12-6.8 18-20.4 18h-6.8c-13.6-1.8-21.4-8.4-23.2-19.4l-18-158z" />
<glyph unicode="&#xf019;" glyph-name="download-alt" data-tags="download-alt" horiz-adv-x="1414" d="M0.1 88.2v424.4c0 15.6 4.2 30 12.4 43.2l265.2 424.4c16.4 27.2 41.6 40.8 75.2 40.8h708.2c33.8 0 58.8-13.6 75.2-40.8l265.2-424.4c8.2-13.2 12.4-27.6 12.4-43.2v-424.4c0-23-8.6-43-26-59.8-17.2-16.8-37.8-25.4-61.6-25.4h-1238.8c-23.8 0-44.4 8.4-61.6 25.4-17.2 16.8-25.8 36.8-25.8 59.8zM87.7 88.2h1238.8v424.4l-265.4 424.4h-708.2l-265.2-424.4v-424.4zM225.9 533.8l177.6 296.2c8.2 14.8 21 22.2 38.2 22.2h132v-43.2h-132l-176.4-296.2h220.8v-128.4h441.8v128.4h220.8l-176.4 296.2h-133.2v43.2h133.2c17.2 0 30-7.4 38.2-22.2l176.4-296.2c9-14.8 9-29.2 0-43.2-8.2-14-21-21-38.2-21h-176.4v-85.2c0-11.6-4.4-21.4-13-29.6s-19.2-12.4-31.4-12.4h-441.8c-12.4 0-22.8 4.2-31.4 12.4s-13 18-13 29.6v85.2h-176.4c-17.2 0-30 7-38.2 21-9 14-9.4 28.4-1.2 43.2zM486.3 681.8c0 11.6 4.2 21.4 12.4 29.6 9 9 19.4 13.6 30.8 13.6 12.4 0 23-4.6 32-13.6l101.2-96.2v237c0 11.6 4.4 21.4 13 29.6s19.2 12.4 31.4 12.4c12.4 0 22.8-4.2 31.4-12.4s13-18 13-29.6v-237l101.2 96.2c9 9 19.8 13.6 32 13.6 12.4 0 22.6-4.6 30.8-13.6 8.2-8.2 12.4-18.2 12.4-29.6 0-11.6-4.2-21.4-12.4-29.6l-177.6-170.2c-8.2-8.2-18.8-12.4-31.4-12.4-12.8 0-23.2 4.2-31.4 12.4l-176.4 170.2c-8.4 8.2-12.4 18-12.4 29.6z" />
<glyph unicode="&#xf01c;" glyph-name="inbox" data-tags="inbox" horiz-adv-x="1230" d="M1 88.602v423.4c0 16.6 3.8 31 11.2 43.4l230.2 423.4c14.8 27.2 36.6 40.8 65.6 40.8h614c28.8 0 50.8-13.6 65.6-40.8l230.2-423.4c7.4-12.4 11.2-26.8 11.2-43.4v-423.4c0-23.2-7.6-43-22.8-59.4s-33.2-24.8-53.8-24.8h-1074.4c-20.6 0-38.6 8.2-53.8 24.8-15.6 16.6-23.2 36.4-23.2 59.4zM77.8 88.602h1074.4v423.4l-230.2 423.4h-614l-230.2-423.4v-423.4zM197.8 491.002c-7.4 14.8-7.4 28.8 0 42l153.4 295.8c7.4 14 18.6 21 33.4 21h460.4c14.8 0 26-7 33.4-21l153.4-295.8c7.4-13.2 7.4-27.2 0-42-7.4-14-18.6-21-33.4-21h-153.4v-84.2c0-11.6-3.8-21.6-11.2-30.4-7.4-8.6-16.6-13-27.2-13h-383.8c-10.8 0-19.8 4.4-27.2 13s-11.2 18.8-11.2 30.4v84.2h-153.4c-14.6-0.2-25.8 6.8-33.2 21zM231.2 512.002h191.8v-126.2h383.8v126.2h191.8l-153.4 295.8h-460.4l-153.6-295.8z" />
<glyph unicode="&#xf021;" glyph-name="refresh" data-tags="refresh" horiz-adv-x="1215" d="M6.9 479.3c-13.2 34.6-7.8 65.4 16 92.4l151.6 169c14.8 16.4 32.6 24.6 53.6 24.6s38.8-8.2 53.6-24.6l151.6-169c23.8-27.2 29.2-58 16-92.4-5.8-15.6-15-28.2-27.8-37.6s-27-14.2-42.6-14.2h-65.4c16.4-73.2 52-133.6 106.6-181.2s117-71.6 186.8-71.6c55 0 105.2 14.8 150.4 44.4 18 11.4 37.2 14.4 57.4 8.6s35.6-19 46.2-39.4c10.6-19.8 13.4-40.8 8-63.4s-17-39.6-35.2-51.2c-70.8-45.2-146.4-67.8-226.8-67.8-111.8 0-209.8 40-294 120.2s-135.8 180.6-154.8 301.4h-81.4c-15.6 0-29.8 4.8-42.6 14.2-12.2 9.4-21.6 22-27.2 37.6zM344.1 899.1c5.4 22.6 17 39.6 35.2 51.2 70.6 45.2 146.8 67.8 228.2 67.8 111.8 0 209.8-40.2 294-120.8s135.4-180.8 153.6-300.8h82.6c15.6 0 29.8-4.8 42.6-14.2s22-22 27.8-37.6c13.2-34.6 7.4-65.4-17.2-92.4l-151.6-169c-14.8-16.4-32.4-24.6-53-24.6-21.4 0-39.4 8.2-54.2 24.6l-150.4 169c-24.6 27.2-30.4 58-17.2 92.4 5.8 15.6 15 28.2 27.8 37.6s27 14.2 42.6 14.2h66.6c-17.2 73.2-53 133.6-107.2 181.2s-116.4 71.6-186.2 71.6c-55 0-105.6-14.8-151.6-44.4-18-11.6-37.2-14.4-57.4-8.6s-35.6 18.8-46.2 39.4c-11.6 19.6-14.2 40.8-8.8 63.4z" />
<glyph unicode="&#xf022;" glyph-name="list-alt" data-tags="list-alt" d="M31 703.2v192.4c0 34.8 11.6 64.8 35 89.8s52 37.6 86 37.6h179.6c33.2 0 61.4-12.6 84.8-37.6s35-55 35-89.8v-192.4c0-34.8-11.6-64.8-35-89.8s-51.6-37.6-84.8-37.6h-179.6c-34 0-62.6 12.6-86 37.6s-35 54.8-35 89.8zM31 128.4v192.4c0 34.8 11.6 64.8 35 89.8s52 37.6 86 37.6h179.6c33.2 0 61.4-12.6 84.8-37.6s35-55 35-89.8v-192.4c0-34.8-11.6-64.8-35-89.8s-51.6-37.6-84.8-37.6h-179.6c-34 0-62.6 12.6-86 37.6s-35 55-35 89.8zM152 703.2h179.6v192.4h-179.6v-192.4zM152 128.4h179.6v192.4h-179.6v-192.4zM542 895.6c0 17 6 31.8 17.8 44.6s26 19.2 42 19.2h331.4c16.2 0 30.2-6.4 42-19.2s17.8-27.6 17.8-44.6c0-17.8-5.8-33-17.2-45.2-11.4-12.4-25.8-18.4-42.6-18.4h-331.4c-17 0-31.2 6.2-42.6 18.4s-17.2 27.2-17.2 45.2zM542 703.2c0-17 6-31.8 17.8-44.6s26-19.2 42-19.2h331.4c16.2 0 30.2 6.4 42 19.2s17.8 27.6 17.8 44.6c0 17.8-5.8 33-17.2 45.2-11.4 12.4-25.8 18.4-42.6 18.4h-331.4c-17 0-31.2-6.2-42.6-18.4-11.4-12.4-17.2-27.4-17.2-45.2zM542 320.8c0-17.8 6-33.2 17.8-45.8 11.8-12.8 26-19.2 42-19.2h331.4c16.2 0 30.2 6.4 42 19.2s17.8 28 17.8 45.8c0 17-6 31.8-17.8 44.6-12 12.8-26 19.2-42 19.2h-331.4c-16.2 0-30.2-6.4-42-19.2s-17.8-27.6-17.8-44.6zM559.2 173.6c-11.4-12.4-17.2-27.4-17.2-45.2s5.8-33 17.2-45.2c11.4-12.4 25.6-18.4 42.6-18.4h331.4c17 0 31.2 6.2 42.6 18.4 11.4 12.4 17.2 27.4 17.2 45.2s-5.8 33-17.2 45.2c-11.4 12.4-25.8 18.4-42.6 18.4h-331.4c-17 0.2-31.2-6-42.6-18.4z" />
<glyph unicode="&#xf023;" glyph-name="lock" data-tags="lock" d="M167.2 63.499v384.6c0 23 6.2 44.6 18.6 64.6s29.2 35.4 50.8 46.6v209c0 71 26.8 131.2 80.6 181s118.4 74.6 194.2 74.6c76.4 0 141.6-25 195.4-74.6 53.8-49.8 80.6-110.2 80.6-181v-209c20.8-12 37.4-27.6 50.2-47.2s19.2-40.8 19.2-64v-384.6c0-17.6-6.8-32.4-20.2-44.8-13.6-12.4-29.8-18.6-49-18.6h-551.2c-19.2 0-35.4 6.2-49 18.6-13.4 12.4-20.2 27.4-20.2 44.8zM236.4 223.699h550.8v224.6c0 17.6-6.8 32.4-20.4 44.8s-29.8 18.6-49 18.6h-412.2c-19.2 0-35.4-6.2-49-18.6s-20.4-27.2-20.4-44.8v-224.6zM236.4 63.499h550.8v127.8h-550.8v-127.8zM305.8 576.099h68.2v192.4c0 35 13.6 65.2 40.6 90.2s59.4 37.6 96.8 37.6c38.2 0 70.8-12.6 98-37.6 27-25 40.6-55.2 40.6-90.2v-192.4h68.2v192.4c0 53.4-20.2 98.8-60.4 136.2s-89 56.2-146.4 56.2c-56.6 0-105-18.8-145.2-56.2s-60.4-82.8-60.4-136.2v-192.4zM443.2 576.099h137.4v192.4c0 17.6-6.8 32.6-20.4 45.4s-29.8 19.2-49 19.2c-18.4 0-34.2-6.4-47.8-19.2s-20.4-27.8-20.4-45.4v-192.4z" />
<glyph unicode="&#xf024;" glyph-name="flag" data-tags="flag" d="M91.7 32.8v958.2c0 9.4 4 17 12.2 23 8 6 18.2 9 30 9h42.2c58 0 112.6-3.6 163.6-11 51.2-7.4 89.4-15.4 114.6-24.2s57.4-20.4 96.2-35c35.4-11.4 63-20.4 82.6-27.2s48.8-13.6 87.8-20.2c39-6.6 81.4-10 127.2-10 23.8 0 43.8-6.2 60-18.4 16.2-12.4 24.2-27.4 24.2-45.4v-384c0-17-8-31.8-24.2-44.6s-36.2-19.2-60-19.2c-58 0-112.6 4.2-163.8 12.8s-88.6 16.6-112.4 23.8c-23.8 7.4-56.4 18.8-98 34.6-31.4 6.8-58.2 15-80.2 24.4s-52.2 17-90.4 23c-38.2 6-80.8 9-127.6 9v-478.4c0-8.6-4-16-12.2-22.4-8-6.4-18-9.6-30-9.6s-22 3-30 9c-7.8 5.8-11.8 13.4-11.8 22.8zM175.9 575.2c61.2 0 116-4.8 164.2-14.4s82.4-18.2 102.4-25.6c20-7.4 40-15 59.8-22.4 20-7.6 62.2-20.2 126.6-38.2s137.6-27 219.4-27v384c-62 0-117.4 4.6-165.8 13.6s-89.2 19.6-121.8 32c-32.8 12.4-65.6 24.6-98.2 36.8-32.8 12.2-73.4 23-121.8 31.8-48.4 9-103.4 13.4-164.6 13.4v-384z" />
<glyph unicode="&#xf025;" glyph-name="headphones" data-tags="headphones" horiz-adv-x="1241" d="M0.1 258.101c0 50 14 95.6 42.4 136.4 28.2 41 65.8 71.8 112.6 92.4v97.8c0 119.2 45.4 221.2 136.4 306.4 91 85 200.4 127.6 328.4 127.6s237.6-42.6 329-127.6c91.4-85 137-187.2 137-306.4v-97.8c46.8-20.6 84.4-51.4 112.6-92.4s42.4-86.4 42.4-136.4c0-70-26.6-129.6-79.8-178.8s-117.2-74-192-74c-37.4 0-73.6 7.2-108.4 21.4-31 12-46.4 33.8-46.4 65.6v332.6c0 31 15.6 52.8 46.4 65.6 35 14.4 71.2 21.4 108.4 21.4 5.6 0 18.6-0.8 39.4-2.4v75c0 99.4-38 184.4-113.8 255-75.8 70.8-167.4 106-274.8 106-106.6 0-197.6-35.4-273.6-106-75.8-70.8-113.8-155.8-113.8-255v-75c19 1.6 32.2 2.4 39.4 2.4 37.4 0 73.4-7.2 108.4-21.4 31-13.6 46.4-35.4 46.4-65.6v-332.6c0-14.4-4.4-27.4-13.2-39.4s-19.8-20.6-33.4-26.2c-35-14.4-71.2-21.4-108.4-21.4-74.8 0-138.6 24.6-192 74-53 49.4-79.6 109-79.6 178.8zM77.5 258.101c0-49.2 19-91.6 57.2-127s83.8-53 137-53v361.2c-54 0-100-17.8-137.6-53-37.6-35.4-56.6-78-56.6-128.2zM310.1 81.701c12.8 2.4 25.8 6 39.4 10.8v332.6c-13.6 4.8-26.6 8.4-39.4 10.8v-354.2zM891.7 92.501c12.6-4.8 25.4-8.4 38.2-10.8v354c-12.8-2.4-25.4-6-38.2-10.8v-332.4zM969.1 78.101c53.2 0 99 17.6 137 53 38.2 35.4 57.2 77.6 57.2 127 0 50-18.8 92.8-56.6 128.2s-83.6 53-137.6 53v-361.2z" />
<glyph unicode="&#xf026;" glyph-name="volume-off" data-tags="volume-off" d="M39 51.7l181 192.2c-40.6 20.8-60.8 51.8-60.8 93.4v360.6c0 30.2 12 55.8 36 77s53.4 31.8 88.4 31.8h65l169.6 178.2c24.6 26.4 56 39.6 94.8 39.6 12.2 0 26.4-2.4 42.4-7 24.4-7.6 44.2-20.8 59.4-39.6 15-18.8 22.6-39.6 22.6-62.2v-121.6l175.4 186.6 72.2-51-247.4-263v-547.2c0-22.6-7.6-43.4-22.6-62.2s-34.8-32-59.4-39.6c-16-4.8-30.2-7-42.4-7-38.6 0-70.2 13.2-94.8 39.6l-169.6 178.2h-24l-214.8-229-71 52.2zM242.6 337.3c0-20.8 10.4-32.6 31.2-35.4l91.8 97.6v335h-82c-11.4 0-21-3.6-29-10.6s-12-15.8-12-26.2v-360.4zM406.6 443.3l248.8 263v209.2c0 16-9.4 27.4-28.2 34-5.6 1.8-10.4 2.8-14.2 2.8-11.4 0-21.8-4.8-31.2-14.2l-175.4-183.8v-311zM406.6 280.7l175.4-183.8c9.4-9.4 19.8-14.2 31.2-14.2 3.8 0 8.4 1 14.2 2.8 18.8 6.6 28.2 17.8 28.2 34v459.4l-248.8-264.4v-33.8z" />
<glyph unicode="&#xf027;" glyph-name="volume-down" data-tags="volume-down" d="M89.9 328.7v366.6c0 30.4 12.2 56.2 37 77.4 24.6 21.4 54.4 32 89.6 32h66.8l173.4 179c24.6 26.4 57.2 39.8 98 39.8 12.2 0 26.6-2.4 42.6-7 24.6-7.6 44.8-20.8 60.4-39.8s23.4-39.8 23.4-62.6v-804.2c0-22.8-7.6-43.4-22.8-61.8s-35.6-32-61-40.4c-16.2-4.8-30.4-7.2-42.6-7.2-40.8 0-73.4 13.2-98 39.8l-173.4 179h-66.8c-35 0-64.8 10.6-89.6 32-24.6 21.2-37 47-37 77.4zM173.9 328.7c0-10.4 4-19 12-25.6s18.2-10 30.6-10h83.8v437.6h-83.8c-12.4 0-22.6-3.4-30.6-10s-12-15.2-12-25.6v-366.4zM342.9 271.9l179-184.6c9.4-9.4 20.4-14.2 32.6-14.2 3.8 0 8.6 1 14.2 2.8 18 5.6 27 17 27 34v804.2c0 17-9 28.4-27 34.2-5.6 1.8-10.4 2.8-14.2 2.8-12.4 0-23.2-4.8-32.6-14.2l-179-184.8v-480.2zM763.5 331.5c0 10.4 4.2 19 12.8 25.6 49.2 43.6 73.8 95.2 73.8 154.8s-24.6 111.2-73.8 154.8c-8.6 6.6-12.8 15.2-12.8 25.6s4.2 19 12.8 25.6c7.6 7.6 17.2 11.4 29.2 11.4 11.8 0 22-3.8 30.6-11.4 65.4-55 98-123.6 98-206s-32.6-151-98-206c-9.4-7.6-19.4-11.4-29.8-11.4-12.4 0-22.2 3.8-29.8 11.4-8.8 6.6-13 15.2-13 25.6z" />
<glyph unicode="&#xf028;" glyph-name="volume-up" data-tags="volume-up" horiz-adv-x="1178" d="M-0.5 687.402c0 29 10.8 53.8 32.6 74.2s47.6 30.6 77.6 30.6h59.8l151 172.8c20.8 25.4 49 38 84.4 38 11.8 0 24.4-2.2 38-6.8 21.8-8.2 39.2-21 52.4-38.8 13.2-17.6 19.8-37.4 19.8-59.2v-772.4c0-21.8-6.6-41.4-19.8-59.2-13.2-17.6-30.6-30.6-52.4-38.8-13.6-4.6-26.4-6.8-38-6.8-35.4 0-63.4 12.6-84.4 38l-151 172.8h-59.8c-30 0-55.8 10.2-77.6 30.6s-32.6 45.2-32.6 74.2v350.8zM83.7 308.002c7.2-7.2 15.8-10.8 25.8-10.8h74.8v421.6h-74.8c-10 0-18.6-3.2-25.8-9.6s-10.8-14.6-10.8-24.4v-350.8c0-10.2 3.6-18.8 10.8-26zM376.1 101.202c8.2-8.2 17.6-12.2 28.6-12.2 5.4 0 9.6 0.4 12.2 1.4 16.4 6.4 24.4 17.6 24.4 34v771.2c0 17.2-8.2 28-24.4 32.6-5.4 1.8-9.6 2.8-12.2 2.8-10.8 0-20.4-4-28.6-12.2l-155-178.2v-461l155-178.4zM600.5 362.402c42.6 40.8 64 90.6 64 149.6s-21.4 108.8-64 149.6c-17.2 17.2-17.2 34 0 50.4 6.4 6.4 14.4 9.6 24.4 9.6s18.6-3.2 25.8-9.6c57.2-54.4 85.6-121 85.6-200s-28.6-145.6-85.6-200c-7.2-7.2-15.8-10.8-25.8-10.8-9 0-17.2 3.6-24.4 10.8-17.2 16.4-17.2 33 0 50.4zM755.5 211.402c86.2 83.4 129.2 182.6 129.2 297.8 0 117-43 216.2-129.2 297.8-6.4 6.4-9.6 14.4-9.6 24.4s3.2 18.6 9.6 25.8c7.2 7.2 16 10.8 26.6 10.8s18.8-3.6 25.2-10.8c100.6-95.2 151-211.2 151-348.2 0-136-50.4-251.6-151-346.8-7.2-7.2-15.8-10.8-25.8-10.8s-18.6 3.6-25.8 10.8c-6.4 6.4-9.6 14.4-9.6 24.4 0 10.2 3.2 18.4 9.4 24.8zM911.9 14.202c7.2-7.2 15.8-10.8 25.8-10.8s18.6 3.6 25.8 10.8c68.8 66.2 122 142.2 159.2 227.8s55.8 175.6 55.8 270-18.6 184.2-55.8 270c-37.2 85.6-90.2 161.6-159.2 227.8-7.2 7.2-15.8 10.8-25.8 10.8s-18.6-3.6-25.8-10.8c-7.2-7.2-10.8-15.6-10.8-25.2s3.6-17.4 10.8-23.8c128.8-123.4 193.2-273 193.2-448.8 0-176-64.4-325.6-193.2-448.8-7.2-7.2-10.8-15.6-10.8-25.2s3.6-17.6 10.8-23.8z" />
<glyph unicode="&#xf029;" glyph-name="qrcode" data-tags="qrcode" d="M1.4 737.1v286.2h41v-286.2h-41zM1.4 655.1v41h41v-41h-41zM1.4 531.9v41h41v-41h-41zM1.4 409.9v82.2h41v-82.2h-41zM1.4 327.7v41h41v-41h-41zM1.4 0.5v286.2h41v-286.2h-41zM42.4 982.3v41h41v-41h-41zM42.4 737.1v41h41v-41h-41zM42.4 572.9v82.2h41v-82.2h-41zM42.4 327.7v82.2h41v-82.2h-41zM42.4 245.7v41h41v-41h-41zM42.4 41.5h41v-41h-41v41zM83.4 982.3v41h41v-41h-41zM83.4 819.3v122h41v-122h-41zM83.4 737.1v41h41v-41h-41zM83.4 655.1v41h41v-41h-41zM83.4 531.9v82.2h41v-82.2h-41zM83.4 327.7v164.2h41v-164.2h-41zM83.4 245.7v41h41v-41h-41zM83.4 82.5v122h41v-122h-41zM83.4 41.5h41v-41h-41v41zM124.4 982.3v41h41v-41h-41zM124.4 819.3v122h41v-122h-41zM124.4 737.1v41h41v-41h-41zM124.4 572.9v123.2h41v-123.2h-41zM124.4 409.9v122h41v-122h-41zM124.4 245.7v41h41v-41h-41zM124.4 82.5v122h41v-122h-41zM124.4 41.5h41v-41h-41v41zM165.4 982.3v41h39.8v-41h-39.8zM165.4 819.3v122h39.8v-122h-39.8zM165.4 737.1v41h39.8v-41h-39.8zM165.4 613.9v41h39.8v-41h-39.8zM165.4 491.9v39.8h39.8v-39.8h-39.8zM165.4 327.7v41h39.8v-41h-39.8zM165.4 245.7v41h39.8v-41h-39.8zM165.4 82.5v122h39.8v-122h-39.8zM165.4 41.5h39.8v-41h-39.8v41zM205.2 982.3v41h41v-41h-41zM205.2 737.1v41h41v-41h-41zM205.2 655.1v41h41v-41h-41zM205.2 572.9v41h41v-41h-41zM205.2 450.9v81h41v-81h-41zM205.2 327.7v82.2h41v-82.2h-41zM205.2 245.7v41h41v-41h-41zM205.2 41.5h41v-41h-41v41zM246.2 737.1v286.2h41v-286.2h-41zM246.2 655.1v41h41v-41h-41zM246.2 572.9v41h41v-41h-41zM246.2 491.9v39.8h41v-39.8h-41zM246.2 409.9v41h41v-41h-41zM246.2 327.7v41h41v-41h-41zM246.2 0.5v286.2h41v-286.2h-41zM287.2 655.1v41h41v-41h-41zM287.2 491.9v122h41v-122h-41zM287.2 327.7v82.2h41v-82.2h-41zM328.2 941.3v82.2h41v-82.2h-41zM328.2 859.3v41h41v-41h-41zM328.2 696.1v82.2h41v-82.2h-41zM328.2 531.9v41h41v-41h-41zM328.2 204.5v205.4h41v-205.4h-41zM328.2 82.5v82.2h41v-82.2h-41zM328.2 41.5h41v-41h-41v41zM369 859.3v82.2h41v-82.2h-41zM369 613.9v123.2h41v-123.2h-41zM369 409.9v41h41v-41h-41zM369 204.5v41h41v-41h-41zM369 82.5v41h41v-41h-41zM369 41.5h41v-41h-41v41zM410 655.1v123.2h41v-123.2h-41zM410 491.9v81h41v-81h-41zM410 286.7v123.2h41v-123.2h-41zM410 0.5v204.2h41v-204.2h-41zM451 941.3v82.2h41v-82.2h-41zM451 859.3v41h41v-41h-41zM451 778.3v41h41v-41h-41zM451 655.1v41h41v-41h-41zM451 572.9v41h41v-41h-41zM451 368.9v163h41v-163h-41zM451 204.5v41h41v-41h-41zM451 0.5v82.2h41v-82.2h-41zM492 859.3v123.2h39.8v-123.2h-39.8zM492 655.1v123.2h39.8v-123.2h-39.8zM492 450.9v163h39.8v-163h-39.8zM492 327.7v41h39.8v-41h-39.8zM492 0.5v82.2h39.8v-82.2h-39.8zM531.8 819.3v163h41v-163h-41zM531.8 450.9v163h41v-163h-41zM531.8 286.7v82.2h41v-82.2h-41zM531.8 41.5v123.2h41v-123.2h-41zM572.8 737.1v204.2h41v-204.2h-41zM572.8 613.9v82.2h41v-82.2h-41zM572.8 409.9v82.2h41v-82.2h-41zM572.8 245.7v82.2h41v-82.2h-41zM572.8 164.7v39.8h41v-39.8h-41zM572.8 41.5v82.2h41v-82.2h-41zM613.8 900.3v41h41v-41h-41zM613.8 819.3v39.8h41v-39.8h-41zM613.8 655.1v41h41v-41h-41zM613.8 531.9v41h41v-41h-41zM613.8 450.9v41h41v-41h-41zM613.8 327.7v41h41v-41h-41zM613.8 204.5v41h41v-41h-41zM613.8 123.7v41h41v-41h-41zM613.8 41.5v41h41v-41h-41zM654.8 982.3v41h41v-41h-41zM654.8 572.9v246.4h41v-246.4h-41zM654.8 450.9v41h41v-41h-41zM654.8 164.7v245.2h41v-245.2h-41zM695.8 613.9v41h41v-41h-41zM695.8 327.7v204.2h41v-204.2h-41zM695.8 123.7v81h41v-81h-41zM736.8 737.1v286.2h41v-286.2h-41zM736.8 655.1v41h41v-41h-41zM736.8 450.9v122h41v-122h-41zM736.8 327.7v82.2h41v-82.2h-41zM736.8 245.7v41h41v-41h-41zM736.8 82.5v122h41v-122h-41zM777.8 982.3v41h41v-41h-41zM777.8 737.1v41h41v-41h-41zM777.8 531.9v123.2h41v-123.2h-41zM777.8 327.7v164.2h41v-164.2h-41zM777.8 164.7v39.8h41v-39.8h-41zM777.8 82.5v41h41v-41h-41zM777.8 41.5h41v-41h-41v41zM818.8 982.3v41h39.8v-41h-39.8zM818.8 819.3v122h39.8v-122h-39.8zM818.8 737.1v41h39.8v-41h-39.8zM818.8 450.9v163h39.8v-163h-39.8zM818.8 0.5v409.4h39.8v-409.4h-39.8zM858.6 982.3v41h41v-41h-41zM858.6 819.3v122h41v-122h-41zM858.6 737.1v41h41v-41h-41zM858.6 655.1v41h41v-41h-41zM858.6 531.9v41h41v-41h-41zM858.6 327.7v82.2h41v-82.2h-41zM858.6 245.7v41h41v-41h-41zM858.6 82.5v41h41v-41h-41zM858.6 41.5h41v-41h-41v41zM899.6 982.3v41h41v-41h-41zM899.6 819.3v122h41v-122h-41zM899.6 737.1v41h41v-41h-41zM899.6 491.9v81h41v-81h-41zM899.6 409.9v41h41v-41h-41zM899.6 327.7v41h41v-41h-41zM899.6 245.7v41h41v-41h-41zM899.6 0.5v164.2h41v-164.2h-41zM940.6 982.3v41h41v-41h-41zM940.6 737.1v41h41v-41h-41zM940.6 613.9v82.2h41v-82.2h-41zM940.6 491.9v39.8h41v-39.8h-41zM940.6 409.9v41h41v-41h-41zM940.6 327.7v41h41v-41h-41zM940.6 245.7v41h41v-41h-41zM940.6 82.5v122h41v-122h-41zM940.6 41.5h41v-41h-41v41zM981.6 737.1v286.2h41v-286.2h-41zM981.6 655.1v41h41v-41h-41zM981.6 450.9v81h41v-81h-41zM981.6 204.5v205.4h41v-205.4h-41zM981.6 123.7v41h41v-41h-41zM981.6 41.5h41v-41h-41v41z" />
<glyph unicode="&#xf02a;" glyph-name="barcode" data-tags="barcode" horiz-adv-x="1265" d="M2.7 128.5v893.4c15.2 0 25.8-2.6 32-8v-885.4h-32zM18.7 79.3l46.6 29.2v-100.8c-3.6 8.8-7 21.8-10 39.2-3.2 17.2-6 29.4-8.6 36.4-3.6-2.6-13-4-28-4zM70.7 128.5v893.4c5.4 0 12-2.2 20-6.6s12-9.2 12-14.6l-10.6-878.8c-9 4.4-16.2 6.6-21.4 6.6zM115.9 128.5l9.4 893.4h14.6l-9.4-893.4h-14.6zM119.9 48.9c0 9.8 4 22.2 12 37.2s19.6 22.6 34.6 22.6c4.4 0 8.4-0.4 12-1.4 3.6-0.8 6.6-2.2 9.4-4 2.6-1.8 4.8-3.4 6.6-4.6 1.8-1.4 3.4-3.6 4.6-6.6 1.4-3 2.2-5.6 2.6-7.2 0.4-1.8 0.8-4.4 1.4-8 0.4-3.6 0.6-5.8 0.6-6.6 0-1 0-3.2 0-6.6v-5.4c0-25.6-3.6-42.4-10.6-50.4h-54.6c-12.4 17.4-18.6 31.2-18.6 41zM137.9 55.5c-1.4-15 1.6-26.6 8.6-34.6h40v66.4c-6.2 5.4-16.4 8-30.6 8-10.6-11.6-16.6-24.8-18-39.8zM175.9 121.9v900h44v-900h-44zM255.9 7.7c-8.8 27.4-8.8 58.8 0 94.2 11.6-0.8 33.4-1.4 65.2-1.4 8.8-28.4 8.4-59.4-1.4-93h-63.8zM263.9 20.9h40c0 3.6 1.8 9.2 5.4 17.2s5.4 14.6 5.4 19.8c0 16.8-10.2 29.2-30.6 37.2l-20-8v-66.2zM281.3 121.9v900c5.4 0 12.2-2.2 20.6-6.6s12.6-9.2 12.6-14.6l-10.6-878.8h-22.6zM329.1 121.9v900h16v-900h-16zM373.1 8.9v29.2c3.6 2.6 12.8 8 28 16 15 8 25.8 14.6 32 20-1 0.8-2.2 2.6-4 5.4-1.8 2.6-3.2 4.4-4 5.4-0.8 0.8-2.8 1.8-6 2.6s-7.4 1.4-12.6 1.4c-8 0-14.8-0.6-20.6-2s-9.6-2-11.4-2l9.4 17.2h37.4c13.4-9.8 20-19 20-27.8 0-3.6-1.6-7.2-4.6-11.2-3.2-4-6.6-7.2-10.6-10-4-2.6-9.8-6.6-17.4-12s-13.6-9.8-18-13.2c0-0.8-0.4-2.2-1.4-4 5.4-2.6 9.8-4 13.4-4 7.2 0 15.6-1.6 25.4-4.6 9.8-3.2 16.8-4.6 21.4-4.6l-64-9.2-12.4 7.4zM378.5 121.9l8 900h14.6l-8-900h-14.6zM433.1 143.1l20 880.2 12-901.4c-5.4 0-12 2-20 6-8 3.8-12 9-12 15.2zM483.7 74.1c0 7 4 13.4 12 19.2s17.8 8.6 29.4 8.6c4.4 0 8.6-0.2 12.6-0.6s7.4-1.2 10-2c2.6-1 5-2 7.4-3.4 2.2-1.4 4-2.6 5.4-4s2.4-2.8 3.4-4.6c0.8-1.8 1.6-3 2-4 0.4-0.8 0.8-2.4 1.4-4.6 0.4-2.2 0.6-3.8 0.6-4.6s0-2.2 0-4v-2.6c0-11.6-5.2-22.8-15.4-33.8s-24.6-19.2-43.4-24.6l25.4 20c-2.6 1.8-9.2 6-19.4 12.6s-18 12.6-23.4 18c-5.2 5-8 10-8 14.4zM499.7 74.1c0-7 5-12.6 15.4-16.6 10.2-4 18.8-6 26-6l9.4 30.6-40 6.6c0-1.8-1.8-3.4-5.4-4.6-3.6-1.4-5.4-4.8-5.4-10zM505.1 121.9v900h14.6v-900h-14.6zM543.7 121.9v893.4c0.8 0 4.6 0.4 11.4 1.4 6.6 0.8 13 1.4 19.4 1.4 6.2 0 11.6-1 16-2.6v-893.4h-46.8zM615.7 59.5v955.8h14.6v-955.8h-14.6zM645.1 59.5v955.8h14.6v-955.8h-14.6zM678.3 121.9v893.4h49.4v-893.4h-49.4zM695.1 21.7c-1.4 4-2 7.6-2 10.6s0.2 6.4 0.6 10c0.4 3.6 0.6 5.8 0.6 6.6 0 20.4 6.6 38 20 53h54.6c7.2-20.4 10.6-47 10.6-79.6-6.2-14.2-21.8-21.2-46.6-21.2-8 0-14.6 1-20 3.4-5.4 2.2-9.4 4.6-12 7.4-2.6 2.4-4.6 5.8-5.8 9.8zM713.1 20.9c2.6 0 7.6-1.2 14.6-3.4s12-3.4 14.6-3.4l18.6 13.2v61h-40c0-0.8-0.6-3.6-2-8s-2.6-11.8-4-22c-1.2-9.6-1.8-22.4-1.8-37.4zM771.7 121.9v893.4h14.6v-893.4h-14.6zM800.9 121.9v893.4h32v-893.4h-32zM822.3 8.9v22.6c4.4 3.6 13.8 9.2 28 17.2s24.4 14.6 30.6 20v16c-2.6 0-8.2 0.4-16.6 1.4-8.4 0.8-16 1-22.6 0.6s-12.6-1.6-18-3.4c-1 3.6 2 7.6 8.6 12s14.4 6.6 23.4 6.6c8 0 14.8-1.2 20.6-3.4s9.6-3.4 11.4-3.4c0-1.8 1.8-4.4 5.4-8s5.4-8 5.4-13.2-9.4-14.4-28-27.2c-18.6-12.8-29.4-22.4-32-28.6 11.6-5.4 31.6-8 60-8l-65.4-9.2-10.8 8zM856.9 121.9v893.4h30.6v-893.4h-30.6zM924.9 121.9v893.4h44v-893.4h-44zM940.3 26.3c-0.4 4.4-0.6 7.6-0.6 9.2 0 1.8 0 4.8 0 9.2v6.6c0 22.2 3.6 39 10.6 50.4h56c12.4-20.4 18.6-34 18.6-41.2 0-15-4-28.8-12-41.2s-19.6-18.6-34.6-18.6c-6.2 0-11.8 0.6-16.6 2s-8.6 3.4-11.4 6c-2.6 2.6-4.8 5-6.6 7.4-2 2.4-3 5.8-3.4 10.2zM958.3 22.3c6.2-5.4 16.4-8 30.6-8 11.6 29.2 14.6 54 9.4 74.4h-40v-66.4zM1008.9 121.9v893.4h14.6v-893.4h-14.6zM1046.3 121.9v893.4h14.6v-893.4h-14.6zM1067.5 6.3c24.8 8 41.8 20 50.6 35.8-2.6 5.4-5.6 9.2-8.6 12-3.2 2.6-6.6 4.2-10.6 4.6s-8.6 0.6-14 0.6-11.2 0-17.4 0l9.4 42.4 57.4-9.2c-19.6 0-36.4-2.6-50.6-8 3.6-4.4 8-8 13.4-10.6s11.8-5.6 19.4-8.6c7.6-3.2 13.6-6 18-8.6v-29.2c-7.4-10.6-29.6-17.6-67-21.2zM1098.1 121.9v893.4h48v-893.4h-48zM1164.9 121.9v893.4h32v-893.4h-32zM1195.5 71.3c-1 2.6 3.2 7.6 12 14.6s17.8 12.4 26.6 16l6.6-94.2c-2.6 7-5.8 19.6-9.4 37.8s-6.6 30.8-9.4 37.8c-9.6-8-18.4-12-26.4-12zM1236.9 121.9v893.4h25.4v-893.4h-25.4z" />
<glyph unicode="&#xf02b;" glyph-name="tag" data-tags="tag" horiz-adv-x="1390" d="M22.7 436.001c-25.8 50.6-25.8 101.2 0 151.8l173.6 336.6c14.6 28.4 36 51 64 67.6s58 24.8 90.2 24.8h869c47.8 0 88.6-16.6 122.6-49.6 34-33.2 51-72.6 51-118.6v-673.2c0-46-17-85.6-51-118.6-34-33.2-74.8-49.6-122.6-49.6h-869c-32.2 0-62.2 8.2-90.2 24.8s-49.4 39-64 67.6l-173.6 336.4zM99.9 474.601l173.6-336.6c16.6-31.2 42.2-47 77.2-47h869c23.8 0 44.2 8.2 61.2 24.8s25.4 36.4 25.4 59.4v673.2c0 23-8.4 42.8-25.4 59.4s-37.4 24.8-61.2 24.8h-869c-35 0-60.6-15.6-77.2-47l-173.6-336.6c-12.8-24.8-12.8-49.6 0-74.4zM246.5 452.601c-17 16.6-25.4 36.4-25.4 59.4s8.4 42.8 25.4 59.4c17 16.6 37.4 24.8 61.2 24.8s44.2-8.2 61.2-24.8c17-16.6 25.4-36.4 25.4-59.4s-8.4-42.8-25.4-59.4c-17-16.6-37.4-24.8-61.2-24.8s-44.2 8.2-61.2 24.8zM276.9 542.201c-8.8-8.2-13-18.4-13-30.4s4.4-21.8 13-29.6c8.8-7.8 19-11.8 31-11.8s22 4 30.2 11.8c8.2 7.8 12.4 17.8 12.4 29.6 0 12-4.2 22-12.4 30.4-8.2 8.2-18.4 12.4-30.2 12.4-12 0-22.4-4-31-12.4z" />
<glyph unicode="&#xf02c;" glyph-name="tags" data-tags="tags" horiz-adv-x="1240" d="M23.897 374.4c-23.2 42.8-23.2 86 0 129.6l155 288.4c13.4 25 32.2 44.6 56.8 58.8 24.4 14.2 51.4 21.4 80.8 21.4h614.2c42.8 0 79.2-14 109.6-42 30.2-28 45.4-62.2 45.4-102.2v-578.2c0-40-15.2-74.2-45.4-102.2s-66.8-42-109.6-42h-614.2c-29.4 0-56.4 7.2-80.8 21.4-24.6 14.2-43.4 33.8-56.8 58.8l-155 288.2zM93.297 406.6l153.6-288.4c15.2-26.8 38.2-40 69.4-40h614.2c21.4 0 39.6 7.2 54.8 21.4s22.8 31.2 22.8 50.8v578.2c0 19.6-7.6 36.4-22.8 50.8-15.2 14.2-33.4 21.4-54.8 21.4h-614.2c-32 0-55.2-13.4-69.4-40l-153.6-288.4c-11.6-21.8-11.6-43.6 0-65.8zM200.297 440c0 19.6 7.6 36.4 22.6 50.8 15.2 14.2 33.4 21.4 54.8 21.4s39.4-7.2 54-21.4c14.6-14.2 22-31.2 22-50.8 0-20.4-7.4-37.8-22-52s-32.8-21.4-54-21.4c-21.4 0-39.6 7.2-54.8 21.4-15.2 14-22.6 31.4-22.6 52zM250.297 465.2c-7.6-7.2-11.4-15.6-11.4-25.4s3.8-18.2 11.4-25.4c7.6-7.2 16.6-10.6 27.4-10.6 10.6 0 19.8 3.6 27.4 10.6 7.6 7.2 11.4 15.6 11.4 25.4s-3.8 18.2-11.4 25.4c-7.6 7.2-16.6 10.6-27.4 10.6-10.8 0.2-19.8-3.4-27.4-10.6zM336.497 944.6c30.2 49 74.8 73.4 133.6 73.4h615.6c41.8 0 77.8-14.2 108.2-42.8 30.2-28.6 45.4-62.8 45.4-102.8v-578.2c0-57-25.8-98.4-77.4-124.2v702.4c0 19.6-7.6 36.4-22.6 50.8-15.2 14.2-33 21.4-53.4 21.4h-749.4z" />
<glyph unicode="&#xf02d;" glyph-name="book" data-tags="book" horiz-adv-x="1346" d="M1.2 301.001v42.4c0 64.8 44.8 191 134.2 378.6 12 25 24.6 50.6 37.4 76.4s24.6 48.8 35 68.6c10.4 19.8 19.8 37.8 27.8 54s14.6 29.2 19.4 38.8l8.4 14.6c16.2 29.2 40.8 43.6 73.8 43.6h672.6c32.2 0 56-13.8 71.4-41.2l252.8-421.2c7.2-13.8 10.8-28.4 10.8-43.8v-42.4c0-32.4-13.8-56.6-41.2-72.8v-190.6c27.4-16.2 41.2-40.4 41.2-72.8v-42.4c0-23.4-8-43.6-24.2-60-16.2-16.6-35.8-24.8-59.2-24.8h-966.2c-81.4 0-150.8 28.8-208 86.2-57.4 57.6-86 127-86 208.8zM85.8 301.001c0-57.4 20.6-106.8 61.6-148 41.2-41.2 90.4-61.8 147.6-61.8h966.6v42.4h-966.4c-45.2 0-84.2 16.4-117.4 49.2-33 32.8-49.6 72.2-49.6 118.4s16.4 85.8 49 119c32.6 33.2 72 49.8 118 49.8h966.6v42.4l-251.6 421.2h-672.6c-74.2-137.6-132.2-255.4-174.2-353.8s-65.4-162.4-70.2-192.4l-7.2-43.6v-42.8zM206.8 390.801c-25-25.2-37.6-55-37.6-89.8s12.6-64.6 37.6-89.2c25-24.6 54.4-37 88.4-37h924.2v253.6h-924.2c-34 0-63.4-12.4-88.4-37.6z" />
<glyph unicode="&#xf02e;" glyph-name="bookmark" data-tags="bookmark" d="M197.4 65.1v894c0 18 6.2 33.2 18.4 45.6 12.4 12.4 27 18.4 44.4 18.4h503.6c17.2 0 32-6.2 44.4-18.4 12.4-12.4 18.4-27.6 18.4-45.6v-894c0-28.8-12.8-48.4-38.2-59.2-7.4-3.2-15.6-5-24.6-5-17.2 0-32 6.2-44.4 18.4l-206.8 210.6-208-210.6c-12.4-12.4-27-18.4-44.4-18.4-9 0-17.2 1.6-24.6 5-25.4 10.8-38.2 30.4-38.2 59.2zM260.2 65.1l252.4 256.2 251.2-256.2v894h-503.6v-894z" />
<glyph unicode="&#xf02f;" glyph-name="print" data-tags="print" horiz-adv-x="1124" d="M4.5 195.9v442.8c0 34.6 13.6 64.2 41 88.6 27.4 24.6 60.4 36.8 99 36.8h68.8v189.4c0 17.6 6.8 32.8 20.6 45.2 13.6 12.4 30.2 18.8 49.4 18.8h557.4c19.2 0 35.8-6.2 49.4-18.8 13.6-12.4 20.6-27.6 20.6-45.2v-189.4h68.8c38.6 0 71.6-12.2 99-36.8s41-54.2 41-88.6v-442.8h-208.8v-126.6c0-17.8-6.8-32.6-20.6-44.6-13.6-12-30.2-18.2-49.4-18.2h-557.4c-19.2 0-35.8 6-49.4 18.2-13.6 12-20.6 27-20.6 44.6v126.6h-208.8zM74.5 258.7h138.8v190.6c0 16.8 6.8 31.6 20.6 44 13.6 12.4 30.2 18.8 49.4 18.8h557.4c19.2 0 35.8-6.2 49.4-18.8 13.6-12.4 20.6-27.2 20.6-44v-190.6h138.8v380c0 17-6.8 31.6-20.6 44-13.6 12.4-30.2 18.8-49.4 18.8h-835c-19.4 0-35.8-6.2-49.4-18.8-13.6-12.4-20.6-27.2-20.6-44v-380zM283.1 764.3h557.4v189.4h-557.4v-189.4zM283.1 69.3h557.4v380h-557.4v-380zM353.1 353.9h417.4v31.4h-417.4v-31.4zM353.1 258.7h417.4v32.6h-417.4v-32.6zM353.1 164.5h417.4v31.4h-417.4v-31.4zM920.9 629.1c-6.8-6.4-10.2-14-10.2-23 0-8.8 3.4-16.4 10.2-22.4s15-9 24.8-9c9.6 0 17.6 3 24.2 9 6.4 6 9.6 13.4 9.6 22.4 0 8.8-3.2 16.4-9.6 23-6.4 6.4-14.4 9.6-24.2 9.6s-18-3.2-24.8-9.6z" />
<glyph unicode="&#xf030;" glyph-name="camera" data-tags="camera" horiz-adv-x="1103" d="M2.1 150.301v578.2c0 39.6 13.6 73.6 40.6 102.2s59.2 43 96.6 43h137.2c0.8 40.4 14.6 74.4 41.2 102.2s58.6 41.8 96 41.8h274.4c38.2 0 70.6-14 97.2-41.8s40-61.8 40-102.2h137.2c38.2 0 70.8-14.2 97.8-42.4s40.6-62.6 40.6-102.8v-578.2c0-39.6-13.6-73.4-40.6-101.6s-59.6-42.4-97.8-42.4h-823.4c-37.4 0-69.6 14.2-96.6 42.4s-40.4 62-40.4 101.6zM71.3 150.301c0-20.2 6.8-37 20.2-50.8 13.6-13.8 29.4-20.6 47.8-20.6h823.4c19 0 35.4 6.8 49 20.6s20.2 30.6 20.2 50.8v578.2c0 20.2-6.8 37.2-20.2 51.4-13.6 14.2-29.8 21.2-49 21.2h-823.4c-18.4 0-34.2-7-47.8-21.2s-20.2-31.2-20.2-51.4v-578.2zM289.1 234.901c-53.6 56.4-80.6 124.6-80.6 204.4s26.8 148 80.6 204.4c53.6 56.4 118.4 84.6 194 84.6s140.2-28.2 194-84.6c53.6-56.4 80.6-124.6 80.6-204.4s-26.8-148-80.6-204.4c-53.6-56.4-118.4-84.6-194-84.6-75.8 0-140.4 28.2-194 84.6zM313.5 617.701c-47-49.6-70.4-109-70.4-178.4s23.4-128.8 70.4-178.4c47-49.6 103.4-74.4 169.4-74.4s122.4 24.8 169.4 74.4c47 49.6 70.4 109 70.4 178.4s-23.4 128.8-70.4 178.4c-47 49.6-103.4 74.4-169.4 74.4s-122.4-24.8-169.4-74.4zM345.7 837.301h411.6v36.2c0 19.4-6.8 36-20.2 50.2-13.6 14-29.8 21.2-49 21.2h-274.4c-18.4 0-34.2-7-47.8-21.2s-20.2-30.8-20.2-50.2v-36.2zM817.1 574.101c-16.8 17.4-25 38.4-25 63.4s8.4 46.4 25 64.2c16.8 17.8 37 26.6 60.8 26.6 23 0 43-8.8 59.6-26.6 16.8-17.8 25-39.2 25-64.2s-8.4-46.2-25-63.4c-16.8-17.4-36.6-26-59.6-26-23.8 0-44.2 8.6-60.8 26zM825.5 637.701c0-14.6 5.2-27 15.6-37.4s22.6-15.8 37-15.8c13.6 0 25.4 5.2 35.8 15.8 10.4 10.4 15.6 23 15.6 37.4 0 15.4-5.2 28.2-15.6 38.8-10.4 10.4-22.2 15.8-35.8 15.8-14.4 0-26.6-5.2-37-15.8-10.6-10.6-15.6-23.6-15.6-38.8z" />
<glyph unicode="&#xf031;" glyph-name="font" data-tags="font" horiz-adv-x="1484" d="M10.997 53.3c-7.2 19.4-7 38.8 0.6 58.6l346.2 864.8c11 30 31.6 45 61.4 45s51.2-14.6 63.8-43.8l368-864.8c8.6-18.8 9.4-38 2.6-57.2-6.8-19.4-18.8-33.6-35.8-43.2-17-9.4-34.6-10.4-52.4-3.2s-31.2 20.4-39.6 39.2l-46 108h-498.4l-43.4-106.8c-12-30-32.8-45-62.6-45-8.6 0-17.8 2.2-28.2 6.4-16.8 8.6-29 22.6-36.2 42zM241.597 309.9h373l-191.6 451.8-181.4-451.8zM880.597 335.7c0 91 29.4 168.8 88.2 233.6s129.4 97.2 212.2 97.2c58.8 0 113.2-18.4 163.6-55.4 4.2 16.2 12.6 29.6 25 39.8s26.2 15.4 41.6 15.4c18.8 0 35-7.6 48.6-22.6s20.4-33.2 20.4-54.8v-508.4c0-20.6-6.8-38.4-20.4-53.4s-29.8-22.6-48.6-22.6c-15.4 0-29.2 5.2-41.6 15.4s-20.6 23.2-25 38.6c-51.2-36-105.6-54-163.6-54-82.6 0-153.4 32.2-212.2 96.6-58.8 64.8-88.2 142.8-88.2 234.6zM1066.397 461.1c-32-34.8-48-76.6-48-125.4 0-49 16-91 48-126.2s70-52.8 114.4-52.8c44.2 0 82.2 17.6 113.8 52.8 31.4 35.2 47.2 77.2 47.2 126.2s-15.8 90.8-47.2 125.4c-31.6 34.8-69.4 52.2-113.8 52.2-44.2 0-82.4-17.4-114.4-52.2z" />
<glyph unicode="&#xf032;" glyph-name="bold" data-tags="bold" d="M89.7 15v987c85.4 13.8 196.4 20.8 333 20.8 147.6 0 260-19 337.2-56.8 90-44.4 135.2-110.4 135.2-198.2 0-45.2-15.6-86.8-46.6-124.8-31.2-38-77.8-67-140-87.4v-4.2c66.8-14.8 121.2-43.6 163-86.6s62.8-95.8 62.8-158.8c0-86-39.4-157.6-118.4-214.8-84.6-60-233.6-90-447.2-90-110 0-202.8 4.6-279 13.8zM344.7 618h85c66.8 0 118.2 11 154 33.2s53.6 52.2 53.6 90c0 77.6-60.8 116.4-182.6 116.4-45.6 0-82.2-1.8-110-5.6v-234zM344.7 171.6c16.8-1.8 50.2-2.8 100.4-2.8 63.2 0 115.4 12 156.8 36s62 61 62 110.8c0 47.2-21.4 82.2-64 105.4-42.8 23-98.4 34.6-167.2 34.6h-87.8v-284z" />
<glyph unicode="&#xf033;" glyph-name="italic" data-tags="italic" d="M172.7 2l10.6 47.2c4.4 0 13.2 0.6 26.2 2 13.2 1.4 23.2 2 30.2 2 26.2 2.6 43.8 5.6 52.6 9.2 18.4 7 32 16.2 40.6 27.6 7.8 9.6 14 23.6 18.4 42l169.4 747c0 0.8 0.2 2.8 0.6 6 0.4 3 0.6 5.4 0.6 7.2 0 0.8 0.2 2.6 0.6 5.2s0.6 4.8 0.6 6.6c0 8.8-2.2 17.4-6.6 26.2-4.4 7-12.6 13.2-25 18.4-9.6 5.2-26.8 11-51.2 17-19.2 4.4-35.4 7.4-48.6 9.2l10.6 47.2h449l-10.6-47.2c-27.2-2.6-46.4-4.8-57.8-6.6-24.6-4.4-41.6-8.4-51.2-11.8-19.2-5.2-33.2-15-42-28.8-8.8-12.2-14.8-26.2-18.4-42l-168-745.6c-1.8-3.6-2.6-7.4-2.6-11.8v-10.4c0-13.2 2.2-22.8 6.6-28.8 3.4-7 11.8-13.6 25-19.6 6-3.6 21.4-7.4 46-11.8 31.6-5.2 49.4-7.8 53.8-7.8l-10.4-47.2h-449z" />
<glyph unicode="&#xf034;" glyph-name="text-height" data-tags="text-height" d="M12.2 715.4v262.4h617.8v-96.2l89.4 92.8c14.6 14.6 31.8 21.8 51.6 21.8s37-7.2 51.6-21.8l167.4-174.2c14.6-16 21.8-34.4 21.8-55 0-19.8-7.2-37.8-21.8-53.8-13.8-14.6-31-21.8-51.6-21.8s-37.8 7.2-51.6 21.8l-42.4 43.6v-446l42.4 44.8c13.8 14.6 31 21.8 51.6 21.8s37.8-7.2 51.6-21.8c14.6-16 21.8-34.4 21.8-55 0-19.8-7.2-37.8-21.8-53.8l-167.4-175.4c-13.8-14.6-31-21.8-51.6-21.8s-37.8 7.2-51.6 21.8l-166.2 175.4c-14.6 15.2-21.8 33.4-21.8 54.4s7.2 39.2 21.8 54.4c13.8 14.6 31 21.8 51.6 21.8s37.8-7.2 51.6-21.8l41.2-44.8v446l-41.2-43.6c-13.8-14.6-31-21.8-51.6-21.8s-37.8 7.2-51.6 21.8c-14.6 15.2-21.6 33.4-21.2 54.4s7.4 39.2 21.2 54.4l10.4 11.4c-1.6 3-3.8 8.2-6.8 15.4s-5 12-5.8 14.4c-20.6 44.4-39.8 68.4-57.4 72.2-6.8 1.6-18.8 3-35.6 4.6-18.4 1.6-30.2 2.4-35.6 2.4h-21.8v-722.2c0-13.8 1.8-27.6 5.8-41.2 5.4-13 13-22.2 23-27.6 3.8-2.2 14.6-6.4 32-12.6 6.2-1.6 18.8-4.6 37.8-9.2v-50.4h-355.4v50.4c2.2 0.8 14.6 2.6 36.6 5.8 15.2 2.4 26 5.4 32 9.2 12.2 6.8 19.8 16 23 27.6 3.8 13 5.8 26.8 5.8 41.2v729h-20.6c-6.2 0-18.4-0.8-36.6-2.4-16.8-1.6-28.6-3-35.6-4.6-18.4-3.8-37-27.8-56.2-72.2-20.6-44.4-35.6-86.4-44.8-126h-35.2zM565.8 279.2c0-11 3.8-20.4 11.4-28l167.4-175.4c6.8-7.6 15.6-11.4 26.4-11.4 10.6 0 19.8 3.8 27.6 11.4l166.2 175.4c7.6 6.8 11.4 16 11.4 27.6s-3.8 21-11.4 28.6c-6.8 7.6-15.6 11.4-26.4 11.4s-19.8-3.8-27.6-11.4l-102-106.6v623.6l102-106.6c7.6-7.6 16.8-11.4 27.6-11.4 10.6 0 19.4 3.8 26.4 11.4 7.6 6.8 11.4 16 11.4 27.6 0 11.4-3.8 21-11.4 28.6l-166.2 175.4c-7.6 7.6-16.8 11.4-27.6 11.4s-19.4-3.8-26.4-11.4l-167.4-175.4c-7.6-8.4-11.4-18-11.4-28.6s3.8-19.8 11.4-27.6c7.6-7.6 16.8-11.4 27.6-11.4 10.6 0 19.4 3.8 26.4 11.4l102 106.6v-623.6l-102 106.6c-7.6 7.6-16.4 11.4-26.4 11.4-9.2 0-18.4-3.8-27.6-11.4-7.6-7.6-11.4-17-11.4-28.2z" />
</font>
</defs>
</svg>
